/* XPM */
static char * fish64_xpm[] = {
"64 64 249 2",
"  	c None",
". 	c #050C1C",
"+ 	c #03092A",
"@ 	c #01053E",
"# 	c #091339",
"$ 	c #121C2F",
"% 	c #112732",
"& 	c #040B5E",
"* 	c #0D1F45",
"= 	c #07107F",
"- 	c #1B2A42",
"; 	c #1F2F4D",
"> 	c #162157",
", 	c #1C2C5A",
"' 	c #1C3B53",
") 	c #142E7A",
"! 	c #1E3867",
"~ 	c #1E397D",
"{ 	c #253F5A",
"] 	c #29545D",
"^ 	c #32455F",
"/ 	c #214A7F",
"( 	c #29556E",
"_ 	c #315968",
": 	c #435E6E",
"< 	c #050E9A",
"[ 	c #030AB7",
"} 	c #0C18BD",
"| 	c #121FB9",
"1 	c #132999",
"2 	c #1D3C91",
"3 	c #142DAD",
"4 	c #152CBD",
"5 	c #1E37B6",
"6 	c #2A3EB5",
"7 	c #0818CE",
"8 	c #1021C6",
"9 	c #1025CE",
"0 	c #182DCE",
"a 	c #1839CE",
"b 	c #1839D6",
"c 	c #2139CE",
"d 	c #2C578B",
"e 	c #314382",
"f 	c #395D84",
"g 	c #294EA1",
"h 	c #2952B1",
"i 	c #315EA2",
"j 	c #3A59A6",
"k 	c #315CBC",
"l 	c #3F7883",
"m 	c #3E749D",
"n 	c #356DB2",
"o 	c #2142CE",
"p 	c #254AC1",
"q 	c #214ACE",
"r 	c #2142D6",
"s 	c #214AD6",
"t 	c #294AD6",
"u 	c #2B52C0",
"v 	c #2952CE",
"w 	c #295ACE",
"x 	c #2952D6",
"y 	c #295AD6",
"z 	c #315ACE",
"A 	c #376FC1",
"B 	c #316BCE",
"C 	c #3963CE",
"D 	c #3160D3",
"E 	c #3163DE",
"F 	c #366DD0",
"G 	c #316BDE",
"H 	c #396BDE",
"I 	c #3977D2",
"J 	c #3973DE",
"K 	c #397BD6",
"L 	c #397BDE",
"M 	c #496080",
"N 	c #556587",
"O 	c #597786",
"P 	c #4E62A7",
"Q 	c #4176BA",
"R 	c #5D76B6",
"S 	c #60769C",
"T 	c #4A7BCE",
"U 	c #427AD2",
"V 	c #4D879C",
"W 	c #4286B9",
"X 	c #5C85B6",
"Y 	c #5492A8",
"Z 	c #5790BF",
"` 	c #559CB3",
" .	c #5AACBC",
"..	c #688899",
"+.	c #7B86A4",
"@.	c #7788B9",
"#.	c #7D8CB9",
"$.	c #7390A6",
"%.	c #7E94A7",
"&.	c #7B9DA7",
"*.	c #7998B9",
"=.	c #79A8B9",
"-.	c #4284DE",
";.	c #468FD2",
">.	c #4A9AD8",
",.	c #5884CE",
"'.	c #5299D5",
").	c #458AE3",
"!.	c #4A94E7",
"~.	c #4A9CE7",
"{.	c #52ADDE",
"].	c #56B0D2",
"^.	c #5EB1DE",
"/.	c #54A0E6",
"(.	c #52A9EF",
"_.	c #5AADEB",
":.	c #5AB5E7",
"<.	c #5AB5EF",
"[.	c #5ABDEF",
"}.	c #6398CC",
"|.	c #7994C6",
"1.	c #66B1CD",
"2.	c #78A7C7",
"3.	c #77B6C8",
"4.	c #7EBDC4",
"5.	c #73BDD6",
"6.	c #7BB5D2",
"7.	c #63BDEF",
"8.	c #60C0CB",
"9.	c #63C0DD",
"0.	c #67D2D8",
"a.	c #7FCACA",
"b.	c #75C8D6",
"c.	c #7BDEDE",
"d.	c #63C6E7",
"e.	c #63C6EF",
"f.	c #67CEE7",
"g.	c #63C6F7",
"h.	c #65CEF1",
"i.	c #6BCEF7",
"j.	c #6BDAE7",
"k.	c #6BDEEF",
"l.	c #6BD6F3",
"m.	c #6BDEF7",
"n.	c #73D2E2",
"o.	c #75DEE4",
"p.	c #73DEEF",
"q.	c #73DEF7",
"r.	c #73E7EF",
"s.	c #73EFEF",
"t.	c #73E7F7",
"u.	c #73E7FF",
"v.	c #73EFF7",
"w.	c #73EFFF",
"x.	c #7BEFF7",
"y.	c #7BF7F7",
"z.	c #7BF7FF",
"A.	c #848EAF",
"B.	c #8890B7",
"C.	c #909CB3",
"D.	c #88A0AD",
"E.	c #8CADB5",
"F.	c #8EB5B7",
"G.	c #90A5B5",
"H.	c #94ADB5",
"I.	c #94ADBD",
"J.	c #9CADBD",
"K.	c #94B5BD",
"L.	c #9CBDBD",
"M.	c #A5BDBD",
"N.	c #8595C2",
"O.	c #8C96C0",
"P.	c #9496C0",
"Q.	c #9C9CCA",
"R.	c #84AAC8",
"S.	c #8CA9C6",
"T.	c #84BDCE",
"U.	c #8CB9CA",
"V.	c #90A0C1",
"W.	c #94ADC6",
"X.	c #99A2C0",
"Y.	c #98A5CA",
"Z.	c #9CADC6",
"`.	c #94B1CA",
" +	c #91BACB",
".+	c #9CB5C1",
"++	c #9CB5CE",
"@+	c #9CBDC6",
"#+	c #9CBDCE",
"$+	c #A5A5CA",
"%+	c #A5ADCA",
"&+	c #A5B5C6",
"*+	c #A5B5CE",
"=+	c #A5BDC6",
"-+	c #ADB1CA",
";+	c #A9BDCA",
">+	c #ADBDCE",
",+	c #ADB2D3",
"'+	c #ADBDD6",
")+	c #B5BDCE",
"!+	c #BDBDE7",
"~+	c #84CECE",
"{+	c #8FC9CF",
"]+	c #81C8D3",
"^+	c #9CC6CE",
"/+	c #A5C6CE",
"(+	c #A0CACA",
"_+	c #A5CED2",
":+	c #ADCBD3",
"<+	c #B5C6CE",
"[+	c #B5CECE",
"}+	c #B1C1D2",
"|+	c #B5CED6",
"1+	c #B9C1D6",
"2+	c #BDC6D6",
"3+	c #BDC6DE",
"4+	c #BDCED6",
"5+	c #BDCEDE",
"6+	c #BDD6D6",
"7+	c #C6C6D6",
"8+	c #C6C6DE",
"9+	c #C6CED6",
"0+	c #C6CEDE",
"a+	c #C6D6D6",
"b+	c #C6DEDE",
"c+	c #CAD2DE",
"d+	c #CED6DE",
"e+	c #CEDEDE",
"f+	c #CECEE7",
"g+	c #CED6E7",
"h+	c #CEDEE7",
"i+	c #D6D6E7",
"j+	c #D6DEE7",
"k+	c #DEDEE7",
"l+	c #DEDEEF",
"m+	c #D6E7E7",
"n+	c #DEE7E7",
"o+	c #DEE7EF",
"p+	c #DEEFEF",
"q+	c #E7E7EF",
"r+	c #E7EFEF",
"s+	c #EFEFEF",
"t+	c #E7E7F7",
"u+	c #E7EFF7",
"v+	c #EFEFF7",
"w+	c #EFF7F7",
"x+	c #F7F7FF",
"y+	c #F7FFFF",
"z+	c #FFFFFF",
"z+z+z+z+z+z+z+z+z+z+z+z+z+z+8.y.y.c.~+~+~+~+~+~+~+~+_+_+h+w+z+z+z+z+z+z+z+z+z+z+z+z+z+z+z+z+z+z+z+z+z+z+z+z+z+z+z+z+z+z+z+z+z+z+",
"z+z+z+z+z+z+z+z+z+z+z+z+z+z+z+V s.z.y.y.y.z.z.y.z.y.z.z.z.y.y.y.x.y.s.~+_+e+z+z+z+z+z+z+z+z+z+z+z+z+z+z+z+z+z+z+z+z+z+z+z+z+z+z+",
"z+z+z+z+z+z+z+z+z+z+z+z+z+z+z+z+&.l l l _ ] ] _ _ _ _ ] ] ] ] : l V  .8.0.o.x.x.a.6+z+z+z+z+z+z+z+z+z+z+z+z+z+z+z+z+z+z+z+z+z+z+",
"z+z+z+z+z+z+z+z+z+z+z+z+z+z+z+z+z+z+z+z+z+z+z+z+z+z+z+z+z+z+z+z+z+z+z+z+e+L.] l 8.0.v.j.r+z+z+z+z+z+z+z+z+z+z+z+z+z+z+z+z+z+z+z+",
"z+z+z+z+z+z+z+z+z+z+z+z+z+z+z+z+z+z+0.x.w.t.x.x.t.t.j.0.9.8.L.z+z+z+z+z+z+z+z+z+z+a+_ ` p.p.s+z+z+z+z+z+z+z+z+z+z+z+z+z+z+z+z+z+",
"z+z+z+z+z+z+z+z+z+z+z+z+z+z+z+z+z+z+w+t.t.u.t.p.l ' O L.H.L.e+z+z+z+z+z+z+z+z+z+z+z+z+z+D.V k. .z+z+z+z+z+z+z+z+z+z+z+z+z+z+z+z+",
"z+z+z+z+z+z+z+z+z+z+z+z+z+z+z+z+z+z+z+j.t.u.t.f.z+z+z+z+z+z+m+T.k.b.4.^+Y ' n+z+z+z+z+z+z+z+&. .=.z+z+z+z+z+z+z+z+z+z+z+z+z+z+z+",
"z+z+z+z+z+z+z+z+z+z+z+z+z+z+z+z+z+z+z+T.t.q.q.q.9.m+z+z+z+z+m.q.l.9.l % r+z+z+r+(+T.4./+n+z+z+z+` V z+z+z+z+z+z+z+z+z+z+z+z+z+z+",
"z+z+z+z+z+z+z+z+z+z+z+z+z+z+z+z+z+z+z+T.q.q.m.q.l.l.f.&.z+s+8.` ' : z+z+:+k.k.l.9.9.].8.f.l.1.r+z+..z+z+z+z+z+z+z+z+z+z+z+z+z+z+",
"z+z+z+z+z+z+z+z+z+z+z+z+z+z+z+z+z+z+z+@+l.l.l.9._ ] % : s+% O a+z+z+^+h.8.Y ] - ..L.d+a+E.: V ].F.z+z+s+z+z+z+z+z+z+z+z+z+z+z+z+",
"z+z+z+z+z+z+z+z+z+z+z+z+z+z+z+z+z+z+z+z+l.l. .% z+z+z+z+z+z+z+z+r+f.` _ O n+z+z+z+z+z+z+z+z+z+w+f l z+=.z+z+z+z+z+z+z+z+z+z+z+z+",
"z+z+z+z+z+d+z+z+z+z+z+z+z+z+z+z+z+z+z+z+h.l.].z+z+z+z+a+- n+z+:+Y ' M.z+z+z+6.h.h.h.] z+z+d.@+z+z+z+z+z+Y z+z+z+z+z+z+z+z+z+z+z+",
"z+z+z+c+i.h.e. .z+z+z+z+z+z+z+z+z+z+z+z+h.i.h.i.h.h.].] z+z+` { M.z+z+z+z+h.i.h.d.` : z+5.h.i.h.V z+z+z+e...z+z+z+z+z+z+z+z+z+z+",
"z+z+z+e.h.g.e.h.9.}+z+z+z+z+z+z+z+z+z+z+e.h.e.e.e.^.% s+s+f &.z+z+D.z+z+5.e.d. .' : z+q+e.e.g.h.( z+z+z+e.:.z+z+z+z+z+z+z+z+z+z+",
"z+z+z+e.e.e.e.e.7.e.>+z+z+z+z+z+z+z+z+z+e.e.g.7. .' z+s+$ r+z+|+m ..z+n+:.W ; O z+z+5.e.e.e.e.:.' z+z+z+e.7.V z+z+z+z+z+z+z+z+z+",
"z+z+z+7.7.7.[.[.e.7.:.Y z+z+z+z+z+z+z+z+[.[.[.].$ z+H.O z+z+7.[.{ z+z+:.' H.z+z+z+n+7.[.[.7.:.f z+z+z+n+e.7.{.n+z+z+z+z+z+z+z+z+",
"z+4+7.[.^.f f ` :.7.[.:.y+z+z+z+z+z+z+R.[.[.m % z+z+z+z+z+7.[.^.z+z+z+_ z+z+z+z+z+<.7.7.[.:.( M.z+z+v+7.7.7.[.Z z+z+z+z+z+z+z+z+",
"z+{.7.:.:.].z+z+l W <.7.: z+z+z+z+z+R.<.{.m ..z+z+z+}.$ n+:.<.:.z+z+z+: z+z+z+z+z+:.<.:.:.m n+z+z+z+<.7.[.[.:.:.r+z+z+z+z+z+z+z+",
"z+0+<.<.<.:.'.j+z+z+m {.( z+`.r+c+1.{.W - ;+z+z+z+_.m q+2.:.:.:.n+z+z+z+z+z+z+z+z+_.<.<.W ' z+z+z+>+<.:.:.:.<._.W z+z+z+z+z+z+z+",
"z+^._._._._._._.*.z+z+%.W z+r+: ( ( % D.z+z+s+r+2.:.' z+{._._._.N z+z+R._.{.o+z+z+Z _._.% z+z+z+z+_._.<._.'.f ( W : z+z+z+z+z+z+",
"z+_._.{.'.{.{._.(.{.r+z+&+{ z+z+z+z+z+z+z+R.m z+R._.% z+R._._.{.D.z+_._.{.'.W z+z+z+_.{.<+z+z+z+z+'.{.>.f $ z+z+z+a+z+z+z+z+z+z+",
"z+W (.{.I.O m ;.(._./.Y z+z+z+z+Z.}.u+z+(.(.' z+z+_.% z+z+_.{.m z+z+/.m % O { a+z+z+Z (.c+z+z+z+z+9+' % s+z+z+<+z+z+z+z+z+z+z+z+",
"z+z+(.(.;.z+z+n+( n ;.W D.z+z+;+/./.N z+/.>.G.z+/.(.( z+n+/.Q ; z+R.l O z+z+I.z+z+z+z+/.N z+z+z+z+z+z+z+z+z+z+z+$.z+z+z+z+z+z+z+",
"z+z+~./././.*.c+z+z+2+G.a+z+z+/.~.W e+z+/.W z+z+/./.m z+!.~.$ z+z+~.{ z+z+z+;.D.z+z+z+>.s+z+z+z+z+z+z+z+z+z+z+++% z+z+>.z+z+z+z+",
"z+|.~.~.~.;.>.!.>.;.n+z+z+z+z+~.!.{ z+k+~.>.z+z+~.~.Q c+*.U r+z+z+;.p+z+z+$.~.' z+z+z+Q z+z+z+z+o+'.;.&+z+z+z+!.^ z+z+,.m z+z+z+",
"z+*.!.!.>.S O _ / d f ' z+z+u+!.!.T z+9+~.~.G.z+~.~.i j+z+/ z+z+z+Q z+z+z+i ;.( z+z+z+q+)+z+z+z+!.!.~.Q z+z+R.;.j+z+z+Z.;.D.z+z+",
"z+W.>.!.>.).++z+z+z+z+z+z+z+).!.!.;.w+z+!.>...z+!.!.- z+z+k+z+z+}.i z+z+z+W S.i z+z+z+z+z+z+z+}.!.!.!.T z+z+).d z+z+z+v+).$ z+z+",
"z+z+U ).Q i Q Q ( * ^ y+z+<+' / n / z+z+).Q z+z+!.;...z+z+z+z+z+).( z+N z+;.q+n z+z+z+z+z+z+z+U Q ;.).n z+s+W $ z+z+z+z+T _ z+z+",
"z+z+J.f . z+q+9+z+z+z+z+z+z+z+z+v+c+z+g+)./ z+z+).n z+z+2+z+z+}.T $ z+d z+U z+Q z+z+z+z+o+z+N ' 9+G.i ( z+).d q+z+z+z+z+Q C.z+z+",
"z+z+k+X k+z+z+z+z+z+z+z+*.A d ! . z+z+X -.- z+z+-.' z+z+d+z+q+)./ k+z+Q z+Z 9+U z+z+z+z+A q+2+z+U `.z+X.z+).; z+z+z+z+z+S O z+z+",
"z+z+X.I -.-.Z.z+z+2+n / $ ..z+z+z+z+z+z+A N z+Z.I ; z+R z+z+T -.{ z+k+K z+X C.U z+z+z+z+X ! z+z+-.-.e z+|.-.* z+z+z+z+2+z+q+z+z+",
"z+z+z+i+/ i i d ' $ &+z+z+z+z+z+z+z+z+z+S C.z+U i -+z+A z+z+A L z+z+0+-.r+W.f X n+z+z+z+K / z+z+L -./ z+X -.d z+z+z+z+|.I V.z+z+",
"z+z+z+z+z+z+z+z+z+z+z+z+z+z+z+z+K L R z+z+z+z+L i z+Y.L y+z+d+U -+z+z+I A.0+' 2+-+z+z+z+K / z+z+J L * z+@.L J S z+z+z+L -.L P z+",
"z+z+z+z+z+z+z+z+z+z+z+z+z+z+z+z+J J K I 2+z+z+F / z+J J O z+z+F ; z+v+#., z+~ z+A.z+z+j+U ! z+z+~ ! 2+z+z+F L B z+z+J J L L J e ",
"z+z+z+z+z+z+z+z+z+z+z+z+z+z+z+z+J J J g 2 ^ z+2+d z+J J M z+z+V., z+i z+/ z+h z+N z+z+J F $ z+0+z+z+V.z+z+i+J k z+1+J J J J J , ",
"z+z+z+z+z+z+z+z+z+z+z+z+z+z+q+J H H F , z+z+R z+d z+F H G.z+z+G $ z+H d S z+k 2+N z+R F k N z+R F H ~ z+z+z+B * z+H F g ! 2 ~ - ",
"z+z+z+z+z+z+z+z+z+z+z+z+z+R H H H H F k z+z+g g i+k+F F 9+z+z+H ..z+z F z+v+C f -+z+F G g 9+z+s+k k . z+z+R , k+r+F ! : z+z+z+z+",
"z+z+z+z+z+z+z+z+z+z+z+%+D D G D g h w k z+z+z+h u+z+A F 0+z+z+F 9+z+q+D d z+z ~ z+z+D F 2 z+z+z+..M z+z+z+D N z+@.2 2+z+N.R z+z+",
"z+z+z+z+z+z+z+z+z+z+C E D D D , 9+z+A.M z+z+z+z+2 z+-+D B.z+z+D 9+z+j )+D P -+g z+0+D D g z+z+z+z+z+z+z+z+h z+z+! { r+E D D ; z+",
"z+z+z+z+z+z+z+z+z+z+D E D D D ~ z+z+z+z+z+z+z+z+u B.z+w S z+z+P A.z+z S h w z+g z+X.E E z 1+z+z+z+z+z+z+z+C.z+X.k+z+D D y w ^ z+",
"z+z+z+z+z+z+z+z+z+V.y D v u v h z+z+z+z+z+z+z+z+2+g z+P , z+z+z+2 z+u v z+g g s+z+n+y y y z n c+z+z+z+z+z+z+z+z+@.D D h 2 # z+z+",
"z+z+z+z+z+z+z x y y x p # A.N M z+z+z+z+z+z+z+z+z+v z+z+) z+z+z+e e s+2 ; z+> # z+z+v x D y y p z+z+z+z+z+z+s+y z x ) ; s+z+z+z+",
"z+z+z+z+*+v x x x x v ) z+z+j+7+z+z+z+z+z+z+z+z+z+p e z+, z+g z+z+l+z+z+z+z+z+z+z+z+e ) 6 v x v r+z+z+z+z+z+Y.x v ~ k+z+z+z+z+z+",
"S 2 k v t v t x v x x v z+z+t t g z+z+z+z+z+z+z+z+i+p c+z+z+p q k+z+z+z+z+z+z+z+z+z+z+z+z+v t v S z+z+z+z+z+v v ) ^ z+z+z+z+z+z+",
"z+z+) p t t q q t s t t # z+j q q p z+z+z+z+z+z+z+z+p 2 z+z+-+s t q P O.r+z+z+z+8+0+j+z+z+q x t ) z+z+z+z+z+q 2 ^ z+z+z+z+z+z+z+",
"z+z+z+c+3 o q o r s q q g z+i+e 5 o 5 z+z+z+z+z+z+z+O.o x+z+z+p o q o s q o t t o s o 5 z+j t s o f+z+z+z+z+* ^ z+z+z+z+z+z+z+z+",
"z+z+z+z+z+f 5 o r o o r o o B.z+z+! 1 2 s+z+z+z+z+z+#.o 2 z+z+$+o o o o o o o o r o o o k+r+o o o o #.8+%+z+z+z+z+z+z+z+z+z+z+z+",
"z+z+z+z+z+z+$+) o o o o o c c c u+z+z+7+l+z+z+z+z+z+c o o P z+z+c o o c c o o o o o o o ~ z+~ 3 5 3 1 * B.z+z+z+z+z+z+z+z+z+z+z+",
"z+z+z+z+z+z+z+z+! 1 a a c a a o c a B.3+z+z+i+z+c c a 5 5 3 z+z+-+5 o a a a a c c c c a 5 t+z+t+A.A.z+z+z+z+z+z+z+z+z+z+z+z+z+z+",
"z+z+z+z+z+z+z+z+z+z+e = 3 4 c a c c a a a 5 # z+& * # + M A.q+z+z+c+4 a c c a a c c a a c 4 z+z+z+z+z+z+z+z+z+z+z+z+z+z+z+z+z+z+",
"z+z+z+z+z+z+z+z+z+z+z+z+q++.# > = & > > @ + i+z+z+z+z+z+z+z+z+z+z+z+B.1 c a 0 c c a a 0 0 0 4 1 e z+z+z+z+z+z+z+z+z+z+z+z+z+z+z+",
"z+z+z+z+z+z+z+z+z+z+z+z+z+z+z+z+z+z+z+z+z+z+z+z+z+z+z+z+z+z+8+8+3+3+z+z+& 1 4 0 0 0 0 4 3 1 @ S z+z+z+z+z+z+z+z+z+z+z+z+z+z+z+z+",
"z+z+z+z+z+z+z+z+z+z+z+z+z+z+z+z+z+z+z+z+z+z+z+z+z+z+z+z+r+0 0 4 0 0 4 R z+z+S @ & > * # e )+z+z+- z+z+z+z+z+z+z+z+z+z+z+z+z+z+z+",
"z+z+z+z+z+z+z+z+z+z+z+z+z+z+z+z+z+z+z+z+z+z+z+z+z+z+z+z+,+0 8 8 0 0 8 8 | c+z+z+z+z+z+z+z+z+$+= x+z+z+z+z+z+z+z+z+z+z+z+z+z+z+z+",
"z+z+z+z+z+z+z+z+z+z+z+z+z+z+z+z+z+z+z+z+z+z+z+z+z+z+N.8 8 9 8 9 9 8 8 8 9 8 | R 2+z+z+z+P 8 < * z+z+z+z+z+z+z+z+z+z+z+z+z+z+z+z+",
"z+z+z+z+z+z+z+z+z+z+z+z+z+z+z+z+z+z+z+z+z+z+z+z+z+z+8 8 8 8 8 8 8 8 8 8 8 8 | = * z+6 8 8 8 + z+z+z+z+z+z+z+z+z+z+z+z+z+z+z+z+z+",
"z+z+z+z+z+z+z+z+z+z+z+z+z+z+z+z+z+z+z+z+z+z+z+q+4 8 } } } } } 7 8 8 8 } < = # A.z+@.} 8 8 = z+z+z+z+z+z+z+z+z+z+z+z+z+z+z+z+z+z+",
"z+z+z+z+z+z+z+z+z+z+z+z+z+z+z+z+z+z+z+z+z+z+< = @ + + + + # # @ & & @ + M i+z+z+} } 7 7 = - z+z+z+z+z+z+z+z+z+z+z+z+z+z+z+z+z+z+",
"z+z+z+z+z+z+z+z+z+z+z+z+z+z+z+z+z+z+z+z+z+z+B.z+z+z+z+z+z+z+z+z+z+z+z+z+z+z+z+j } } 7 [ - z+z+z+z+z+z+z+z+z+z+z+z+z+z+z+z+z+z+z+",
"z+z+z+z+z+z+z+z+z+z+z+z+z+z+z+z+z+z+z+z+z+z+z+z+z+z+z+z+z+z+z+z+z+z+z+z+z+z+z+-+[ [ [ @ z+z+z+z+z+z+z+z+z+z+z+z+z+z+z+z+z+z+z+z+",
"z+z+z+z+z+z+z+z+z+z+z+z+z+z+z+z+z+z+z+z+z+z+z+z+z+z+z+z+z+z+z+z+z+z+z+z+z+z+z+R [ [ @ q+z+z+z+z+z+z+z+z+z+z+z+z+z+z+z+z+z+z+z+z+",
"z+z+z+z+z+z+z+z+z+z+z+z+z+z+z+z+z+z+z+z+z+z+z+z+z+z+z+z+z+z+z+z+z+z+z+z+z+z+[ [ < @ z+z+z+z+z+z+z+z+z+z+z+z+z+z+z+z+z+z+z+z+z+z+",
"z+z+z+z+z+z+z+z+z+z+z+z+z+z+z+z+z+z+z+z+z+z+z+z+z+z+z+z+z+z+z+z+z+z+z+i+$+[ < & N z+z+z+z+z+z+z+z+z+z+z+z+z+z+z+z+z+z+z+z+z+z+z+",
"z+z+z+z+z+z+z+z+z+z+z+z+z+z+z+z+z+z+z+z+z+z+z+z+z+z+z+z+z+z+z+z+z+z+z+t++.+.1+z+z+z+z+z+z+z+z+z+z+z+z+z+z+z+z+z+z+z+z+z+z+z+z+z+"};
