/* XPM */
static char *fish32_xpm[] = {
/* columns rows colors chars-per-pixel */
"32 32 181 2",
"   c black",
".  c #145414D51454",
"X  c #1B5C1BBC1B7C",
"o  c #1FC021412101",
"O  c #1B9C25A62BAC",
"+  c #191928283131",
"@  c #24E5253F250B",
"#  c #2525298A2B6C",
"$  c #29AA2AAB25A6",
"%  c #2C532CED2C86",
"&  c #25A62D2D31B2",
"*  c #28282F6F3232",
"=  c #2A2A327235B6",
"-  c #315233742586",
";  c #30F131712F6F",
":  c #377739FA28A9",
">  c #33E234E2343D",
",  c #373739BA3939",
"<  c #3BEF3DBE3BC8",
"1  c #15D62FF04080",
"2  c #1F1F3E7E4DCE",
"3  c #27A83EFF4C0C",
"4  c #2CAD3CFD4747",
"5  c #3BBC3E7E4040",
"6  c #3EFF41413DFE",
"7  c #1C9D45455DDE",
"8  c #0F0F48C96FF0",
"9  c #13D444846424",
"0  c #101048886E2E",
"q  c #161650507636",
"w  c #111151917BBB",
"e  c #2C8D43C45152",
"r  c #2C6C4ACB5E1E",
"t  c #35F640804202",
"y  c #377743C44B4B",
"u  c #3D7D40C141C2",
"i  c #3E7E46064909",
"p  c #343549EA5778",
"a  c #38B94E0E5C1C",
"s  c #3FC051D25CDD",
"d  c #234E4C3765A5",
"f  c #21E251516FAF",
"g  c #21E257577939",
"h  c #37F857976AAA",
"j  c #276763237E3E",
"k  c #416C44593E53",
"l  c #436E445A4399",
"z  c #420247874A8A",
"x  c #4E4E50104282",
"c  c #4B9C4D6D4CFD",
"v  c #4B0B50105212",
"b  c #4F8F51514D8D",
"n  c #42C353935D1D",
"m  c #4A0A55555ADB",
"M  c #5A1A5C9C4ACB",
"N  c #511151B251D2",
"B  c #57575B1B51D2",
"V  c #56D758B958D9",
"C  c #5A1A5BBC51B2",
"Z  c #5B5B5CED5B9C",
"A  c #420256566424",
"S  c #466759196444",
"D  c #4F8F5D1D65A5",
"F  c #4A4A5F9F6B2B",
"G  c #53D45D1D6121",
"H  c #5F5F61214707",
"J  c #555561216929",
"K  c #5A9A61616363",
"L  c #61A163234787",
"P  c #6BAB6D6D4F4F",
"I  c #62A363A352F3",
"U  c #632363E45A5A",
"Y  c #66A668A85252",
"T  c #6B2B6F6F5313",
"R  c #6AEB6C6C5F5F",
"E  c #763677F84D8D",
"W  c #713172725616",
"Q  c #7E3E7EFF59DA",
"!  c #60E1646464E5",
"~  c #65E66A6A6969",
"^  c #69CA6A2A69CA",
"/  c #6FF07A3A78B8",
"(  c #79797AFB60E1",
")  c #7A7A7B3B75F6",
"_  c #7AFB7C7C7CFD",
"`  c #048552528787",
"'  c #059B56968BA1",
"]  c #0E8F56968646",
"[  c #0E4E5C9C8F8F",
"{  c #04E55C1C94D4",
"}  c #0A2B5DFE9535",
"|  c #101058588646",
" . c #17985E1E8BCB",
".. c #058661829C5C",
"X. c #0E4E61E29818",
"o. c #0B0B62E39D5D",
"O. c #185862629292",
"+. c #06676B4BAC6C",
"@. c #08896D2DADED",
"#. c #05356EAFB363",
"$. c #068776B6BF7F",
"%. c #27675E9E8181",
"&. c #22E361A18B0B",
"*. c #04C57777C242",
"=. c #05867979C4C4",
"-. c #04847E13CD78",
";. c #04448040D0D0",
":. c #2D2D8E0EBF7F",
">. c #04448848DDDD",
",. c #1C9D9313D858",
"<. c #040F8D02E691",
"1. c #040492B2F050",
"2. c #0C3795C0ED57",
"3. c #047195A8F48D",
"4. c #06679919F898",
"5. c #041099E5FBF4",
"6. c #0A4A9717F171",
"7. c #0C0C98B8F2B2",
"8. c #16569717E666",
"9. c #15D69919E969",
"0. c #22A39252D00F",
"q. c #2CAD97D7CF4F",
"w. c #22A39717D8D8",
"e. c #21E29A5ADE9E",
"r. c #33F49A1ACC4C",
"t. c #58D9A4E4B878",
"y. c #6AEBAEEEB3F3",
"u. c #7C7CB2B2A6E6",
"i. c #79FABA9AB959",
"p. c #4F0FAAAACA8A",
"a. c #4B8BA666D312",
"s. c #8DAE8F0F5A1A",
"d. c #8FCF91515C9C",
"f. c #935395555F1F",
"g. c #83838F4F7878",
"h. c #9515972C62CD",
"j. c #9858991962E3",
"k. c #9B9B9D5D6464",
"l. c #9E5E9FDF6CED",
"z. c #A6E6A8686AAA",
"x. c #B030B0F06F6F",
"c. c #B9F9BAFA7434",
"v. c #BDBDBEBE78F9",
"b. c #C888C8887AFB",
"n. c #CE8ED00F7FBF",
"m. c #8CAD8FF08E2E",
"M. c #88C8B1B19B1B",
"N. c #9A9AC0409F9F",
"B. c #8D4DBCDCA707",
"V. c #8383B272B7B7",
"C. c #91D1AB6BAAEA",
"Z. c #9494BE7EA2E2",
"A. c #9555BBBBBE7E",
"S. c #9FDFB9F9B878",
"D. c #A121AA6A8444",
"F. c #A525BFFF92D2",
"G. c #9B5BC605A868",
"H. c #A161C3C39E5E",
"J. c #AC2CCB4B9F5F",
"K. c #BEBECE4E9050",
"L. c #CD8DCE4E8181",
"P. c #C686D2928DCD",
"I. c #C989D9D99696",
"U. c #D252D33D8318",
"Y. c #DA5ADA7A86E7",
"T. c #DDC8DDDD899F",
"R. c #D817E2219696",
"E. c #D959E4E49797",
"W. c #E0A0E1E19ADA",
"Q. c #E48CE53C8D6D",
"!. c #E221E8689414",
"~. c #E868ED2C94D4",
"^. c #EEAEEFFF93C3",
"/. c #EFEFF17193E9",
"(. c #F4AEF5E29629",
"). c #F4C9F7CC9918",
"_. c #F84DF9799782",
"`. c #F858F9FA98F9",
"'. c #FACAFB6A9797",
"]. c #FCBDFDA79993",
"[. c None",
/* pixels */
"m.- : - Z m.. [.[.[.[.[.[.[.[.[.[.[.[.[.[.[.[.[.[.[.[.[.[.[.[.[.",
"P /.).Q.h.j d / ~ [.[.[.[.[.[.[.[.[.[.[.[.[.[.[.[.[.[.[.[.[.[.[.",
"s.(.Q.'.].R.V.S.C.> [.[.[.[.[.[.[.[.[.[.[.[.[.[.[.[.[.[.[.[.[.[.",
"s.T.Q.U./.].D.t A.p @ [.[.[.[.[.[.[.[.[.[.[.[.[.[.[.[.[.[.[.[.[.",
"E T.'.].Y.).W.g.a.-.s [.[.[.[.^ V Z ^ [.[.[.[.[.[.[.[.[.[.[.[.[.",
"W Q.).].'./.'._.J.2.*.= [.V e 9 8 0 7 m l [.[.[.[.[.[.[.[.[.[.[.",
"R Q.Q.'.].].].].'.t.5.X.K | <.3.5.3.-.{ 1 @ [.[.[.[.[.[.[.[.[.[.",
"$ U.'.].].].].].'.E.e.3.` 3.5.5.3.q 4 O = % [.[.[.[.[.[.[.[.[.[.",
"< j.].].].].].].].].G.7.4.5.5.5.#.v [.[.[.[.[.[.[.[.[.[.[.[.[.[.",
"[.Y ^.].].].].].].].).B.r.9.5.5. .[.[.[.[.[.[.[.[.[.[.[.[.[.[.[.",
"[.> h.].].].].].].].].].^.I.y.7.&.[.[.[.[.[.[.[.[.[.[.[.[.[.[.[.",
"[.[.< L.].].].].].].].].].].].i.O.[.[.[.[.[.[.[.[.[.[.[.[.[.[.[.",
"[.[.$ I Q.].].].].].].'.F.K./.P.@.> [.[.[.[.[.[.[.[.[.[.[.[.[.[.",
"[.[.[.% x.^.].].].].].].N.2.0.,.<.F [.[.[.[.[.[.[.[.[.[.[.[.[.[.",
"[.[.[.% c.Y.Y.'.].].].].).u.2.5.5.} < [.[.[.[.[.[.[.[.[.[.[.[.[.",
"[.[.[., l.].^.s.Q.].].].]._.Z.8.5.<.S [.[.[.[.[.[.[.[.[.[.[.[.[.",
"[.[.[.> W ].].L Y b.].].].].'.H.7.5.o.z [.[.[.[.[.[.[.[.[.[.[.[.",
"[.[.[.[.) n.'.( l U j.^.].].].].i.4.3.| i [.[.[.[.[.[.[.[.[.[.[.",
"[.[.[.[.X M v.B [.[.c L U.].].].).p.5.3...a J G G d d d A # ; [.",
"[.[.[.[.[.X _ c [.[.[.c B h./.].].~.w.5.5.3.>.-.<.5.5.5.3.+.3 X ",
"[.[.[.[.[.[.[.[.[.[.[.[.> % x k./.].B.5.5.5.5.<.#.' ` ` ' { { + ",
"[.[.[.[.[.[.[.[.[.[.[.[.[.[.$ > C z.!.q.5.5.#.n c 6 k k l < # o ",
"[.[.[.[.[.[.[.[.[.[.[.[.[.[.[.[.@ b Q M.4.5.} l [.[.[.[.[.[.[.[.",
"[.[.[.[.[.[.[.[.[.[.[.[.[.[.[.[.[.[.> T :.5.-.V [.[.[.[.[.[.[.[.",
"[.[.[.[.[.[.[.[.[.[.[.[.[.[.[.[.[.[.[.Z 2 1.3.S [.[.[.[.[.[.[.[.",
"[.[.[.[.[.[.[.[.[.[.[.[.[.[.[.[.[.[.[.[., } 4.%.[.[.[.[.[.[.[.[.",
"[.[.[.[.[.[.[.[.[.[.[.[.[.[.[.[.[.[.[.[.[.y =.+.> [.[.[.[.[.[.[.",
"[.[.[.[.[.[.[.[.[.[.[.[.[.[.[.[.[.[.[.[.[.X f <.e [.[.[.[.[.[.[.",
"[.[.[.[.[.[.[.[.[.[.[.[.[.[.[.[.[.[.[.[.[.[.5 =.w @ [.[.[.[.[.[.",
"[.[.[.[.[.[.[.[.[.[.[.[.[.[.[.[.[.[.[.[.[.[.[.h #.u [.[.[.[.[.[.",
"[.[.[.[.[.[.[.[.[.[.[.[.[.[.[.[.[.[.[.[.[.[.[.N g p [.[.[.[.[.[.",
"[.[.[.[.[.[.[.[.[.[.[.[.[.[.[.[.[.[.[.[.[.[.[.[.! & N [.[.[.[.[."
};
