/* XPM */
static char *fish48_xpm[] = {
/* columns rows colors chars-per-pixel */
"48 48 257 2",
"   c #000100010001",
".  c #0C480C960C98",
"X  c #0D3E129315C6",
"o  c #136B140813B2",
"O  c #171718181798",
"+  c #17E819BA1A9B",
"@  c #1BCF1C891B98",
"#  c #15861DBE2323",
"$  c #1A5A1EEF20C1",
"%  c #1F2F21391C75",
"&  c #1E5E22E32565",
"*  c #1DDE2C6C33F4",
"=  c #20FC22901EFF",
"-  c #23F4247C2452",
";  c #23A427A82868",
":  c #2B942C5F2C35",
">  c #25152B6B2E6E",
",  c #26662E6E3313",
"<  c #2EAF310131D2",
"1  c #21A231B23AFB",
"2  c #333C33D42FA8",
"3  c #330C346C33DE",
"4  c #30503A3A3EBF",
"5  c #387838D93818",
"6  c #38583B1B3A8B",
"7  c #04853B7B5F7F",
"8  c #1858375749CA",
"9  c #1891374F4AA3",
"0  c #15B63D1555EE",
"q  c #283B3BAC46CD",
"w  c #360E3EA741FA",
"e  c #3F5F41613414",
"r  c #1E5E42C357F8",
"t  c #1F3F44C55B1B",
"y  c #09DA45056A4A",
"u  c #0A954DCE796E",
"i  c #07924B167737",
"p  c #0F6051517AEB",
"a  c #16E7476766A6",
"s  c #1B744C146A9A",
"d  c #12C34A8B6DFE",
"f  c #12934D787313",
"g  c #167658688070",
"h  c #1B5B529275F6",
"j  c #2E4E40604B8B",
"k  c #240F466B5C57",
"l  c #28C947275A42",
"z  c #3E16420842C7",
"x  c #3B36453A4A4A",
"c  c #352546CF4899",
"v  c #37D84ACB5797",
"b  c #338C4D735DD3",
"n  c #3A1A47A75090",
"m  c #3AA54EF95B9B",
"M  c #3A0A4A705297",
"N  c #23334B7B6424",
"B  c #209051517040",
"V  c #2F9F55056BCB",
"C  c #2495554573C4",
"Z  c #24845A7A7C1C",
"A  c #32FB51DA64AD",
"S  c #3CFD58586828",
"D  c #3C6C53746171",
"F  c #41D243D436F7",
"G  c #4F3F51113666",
"H  c #529354443E2E",
"J  c #5CC55E6F3DCE",
"K  c #5F1F61A13F7F",
"L  c #447A4590440D",
"P  c #47C8488843C4",
"I  c #45174BD44B33",
"U  c #4AD14BDC4A76",
"Y  c #4A8A50305212",
"T  c #4F2F51B144C5",
"R  c #4B5351FA5151",
"E  c #4C5C55F65B94",
"W  c #521A552D4D75",
"Q  c #57D0598A44D5",
"!  c #5A6A5B974B1B",
"~  c #58F95A8A45A6",
"^  c #57C859D25A4A",
"/  c #5BF55D305B68",
"(  c #572758C955B6",
")  c #4C215B9163CE",
"_  c #600861615EFF",
"`  c #580866466FBF",
"'  c #5E52636F63AF",
"]  c #5C6C67A06E66",
"[  c #585869696929",
"{  c #59496B63726A",
"}  c #6098626A4DF6",
"|  c #67976B0B4FBF",
" . c #6BBC6D2D4B9C",
".. c #69F26AF358F5",
"X. c #6F5F710155B5",
"o. c #73A975054ED4",
"O. c #73CE754A53A4",
"+. c #7BC47C9C5ADB",
"@. c #630B65556626",
"#. c #67C2695E6414",
"$. c #650A69C46B8B",
"%. c #6F4F70106848",
"&. c #6ACF6E966E42",
"*. c #63E472327030",
"=. c #703071716323",
"-. c #6F4F77477A6A",
";. c #6E4E712171B1",
":. c #763677577050",
">. c #72E374B47484",
",. c #761677F87898",
"<. c #7868797976F7",
"1. c #77E87D457F47",
"2. c #7AAA7D9E7C4C",
"3. c #0C46550583E3",
"4. c #0DC35BA18EA9",
"5. c #04F55B209373",
"6. c #0A0A5E2E9646",
"7. c #045D61929E3E",
"8. c #0A5A64199E28",
"9. c #1171642499B9",
"0. c #054D652DA3C3",
"q. c #08E96929A959",
"w. c #04246C0CB030",
"e. c #04756EBFB454",
"r. c #0ECF70C0AFFF",
"t. c #04657121B7C7",
"y. c #04A873ECBD58",
"u. c #0AC37323B717",
"i. c #09697575BBDB",
"p. c #13836FDFAD2D",
"a. c #12327171AFAF",
"s. c #2919746498C8",
"d. c #054D76BEC165",
"f. c #05DE7AF7C6CE",
"g. c #04757C6CCAD0",
"h. c #410179198F2F",
"j. c #6F8F7B3B80E0",
"k. c #6F0F8EEE7B9B",
"l. c #7ABB820A7848",
"z. c #35F68E4EB7F7",
"x. c #3F1F97B7BCBC",
"c. c #045485C0DABA",
"v. c #046888F0DF4B",
"b. c #053E837BD615",
"n. c #175794F4E01F",
"m. c #1D5D93D3D837",
"M. c #1F5F9979DF5F",
"N. c #1E7E9434D8F8",
"B. c #04488CAEE5D9",
"V. c #044D8F4FEA21",
"C. c #040D917CEDE2",
"Z. c #0CE09656ED86",
"A. c #049D95E5F4C9",
"S. c #04149843F9CB",
"D. c #061C98F8F898",
"F. c #04199A0FFC2E",
"G. c #091597C3F3D7",
"H. c #09499919F635",
"J. c #133F9652E73B",
"K. c #1A6A97F7E2C2",
"L. c #1FC09DFDE7E7",
"P. c #13B49939ED8D",
"I. c #212195E5D7B7",
"U. c #25C69939D8B8",
"Y. c #2DCE9A62D3BB",
"T. c #2BD19EB4DBC0",
"R. c #3BEC9E8ECB1A",
"E. c #48C988289A09",
"W. c #4DDE9DFDB858",
"Q. c #47B89D1DBB83",
"!. c #56169FBFB3F3",
"~. c #4FD0A1A1BC3C",
"^. c #5ADBA181AFCF",
"/. c #5AFBA817B969",
"(. c #5838A5E6BA0A",
"). c #7A8281618585",
"_. c #7E1E8C3C8A9A",
"`. c #7F7F91F18E6E",
"'. c #63B3A5C5AE8E",
"]. c #6F4FB2A2BA19",
"[. c #7181AC0BAA9A",
"{. c #7CFDB5C6AE4E",
"}. c #6646A514B878",
"|. c #42829CDCC120",
" X c #40A0A424CF8F",
".X c #72A2B484CC7C",
"XX c #86B688B857C7",
"oX c #872788F95931",
"OX c #8B838C6F5CFA",
"+X c #84C485C55797",
"@X c #87279F5F7E1E",
"#X c #9AE09CA16520",
"$X c #A232A32D6701",
"%X c #A570A6A6695E",
"&X c #ADEDAFCF6E4E",
"*X c #AFCFB0D06F2F",
"=X c #B737B7B77474",
"-X c #BD27BE4E765C",
";X c #BEDEC2117C46",
":X c #C141C2827777",
">X c #C787C8987D1D",
",X c #CAAACC4C7E5E",
"<X c #88688A6A8747",
"1X c #835B849D8484",
"2X c #951598988363",
"3X c #915194749353",
"4X c #83C3A9A99292",
"5X c #9828BF0E9F0E",
"6X c #88E8B797A2A2",
"7X c #88C9B979A747",
"8X c #8404BBFBB0B0",
"9X c #9989BB9BBEAE",
"0X c #B030BE7E9616",
"qX c #AD4DAEAEAE4E",
"wX c #A666A737A4A4",
"eX c #B7A7BA4AB827",
"rX c #9A5ABFDFC5A5",
"tX c #9F5FCC0BAC6C",
"yX c #A141C3939CDD",
"uX c #A888C6A69AAA",
"iX c #B971C36387C7",
"pX c #B6CECD2597C8",
"aX c #BEBED4339858",
"sX c #BFFFD4E499A9",
"dX c #A797CB9BA494",
"fX c #ACACD1F1A817",
"gX c #A252C130C0F0",
"hX c #B50DD50DD46C",
"jX c #CC9CCDE981BE",
"kX c #CAEAD4339050",
"lX c #C726D9B998F8",
"zX c #CCCCD84790E0",
"xX c #C7C7D8E89707",
"cX c #D4A5D4F784A3",
"vX c #D888D95E85D5",
"bX c #DADADBFB878D",
"nX c #DE31DE8A89CE",
"mX c #D211DC1B93F3",
"MX c #D7F7E3739797",
"NX c #DCBCE6259656",
"BX c #DCBCE8A89959",
"VX c #D676E3A39A2A",
"CX c #E4A6E52D8CF3",
"ZX c #EAAEEB2F9008",
"AX c #E2C7E63094F4",
"SX c #E7E7EEEE99D9",
"DX c #ECE5EEB692FF",
"FX c #E908EFCF9959",
"GX c #EFAFF13994BC",
"HX c #E9A9F1B19A5A",
"JX c #F4DBF5EE95F9",
"KX c #F484F8989999",
"LX c #F811F97F9841",
"PX c #F7EFF9999911",
"IX c #FBB6FC509818",
"UX c #FCB2FDA499A1",
"YX c None",
/* pixels */
"eX3 @ = % = _ <.qX. YXYXYXYXYXYXYXYXYXYXYXYXYXYXYXYXYXYXYXYXYXYXYXYXYXYXYXYXYXYXYXYXYXYXYXYXYXYX",
"l.o.%X&X%X+XQ x D q ; : 3 - YXYXYXYXYXYXYXYXYXYXYXYXYXYXYXYXYXYXYXYXYXYXYXYXYXYXYXYXYXYXYXYXYXYX",
"Q ,XLXIXLXDX;Xk.s.g { _.' < YXYXYXYXYXYXYXYXYXYXYXYXYXYXYXYXYXYXYXYXYXYXYXYXYXYXYXYXYXYXYXYXYXYX",
"J JXJXZXJXIXIXJXpX}.rXhXgX;.% YXYXYXYXYXYXYXYXYXYXYXYXYXYXYXYXYXYXYXYXYXYXYXYXYXYXYXYXYXYXYXYXYX",
"J JXnXcXvXZXIXIXPX0X*.`.hX[ w YXYXYXYXYXYXYXYXYXYXYXYXYXYXYXYXYXYXYXYXYXYXYXYXYXYXYXYXYXYXYXYXYX",
"J DXcXGXCX,XZXIXUXiXx w 9Xh.j I YXYXYXYXYXYXYXYXYXYXYXYXYXYXYXYXYXYXYXYXYXYXYXYXYXYXYXYXYXYXYXYX",
"G nXvXIXIXIXcXCXIXAX2X<..XP.0.n z YXYXYXYXYX+ 3 : : < 3 @ YXYXYXYXYXYXYXYXYXYXYXYXYXYXYXYXYXYXYX",
"H cXcXPXUXIXJXbXJXIXNXzX{.K.A.4.* . YXYXP : U ,.$.$.;.2._ P YXYXYXYXYXYXYXYXYXYXYXYXYXYXYXYXYXYX",
"..:XcXJXUXUXUXJXLXUXIXIXVX~.H.B.p z YX: E q f 3.6.6.5.p r x U U YXYXYXYXYXYXYXYXYXYXYXYXYXYXYXYX",
":.#XAXbXUXUXUXUXUXUXUXUXIXpXY.S.v.a ,.E 3.c.V.A.S.S.A.B.d.7.9 w o YXYXYXYXYXYXYXYXYXYXYXYXYXYXYX",
"P +XDXCXUXUXUXUXUXUXUXUXUXHX6XZ.S.y.8 u v.S.F.F.F.V.t.3.h s 9 > . YXYXYXYXYXYXYXYXYXYXYXYXYXYXYX",
"o +.CXLXUXUXUXUXUXUXUXUXIXIXVXR.H.A.0.g.S.F.F.F.A.q.l E X o @ ^ @ YXYXYXYXYXYXYXYXYXYXYXYXYXYXYX",
"@ ..-XUXUXUXUXUXUXUXUXUXUXUXIXdXT.D.H.S.F.F.F.F.b.C ' YXYXYXYXYXYXYXYXYXYXYXYXYXYXYXYXYXYXYXYXYX",
"o P OXJXUXUXUXUXUXUXUXUXIXUXUXDX{.U.Z.S.F.S.F.F.i.q . YXYXYXYXYXYXYXYXYXYXYXYXYXYXYXYXYXYXYXYXYX",
"YX3 } CXUXUXUXUXUXUXUXUXUXUXUXUXBX5XW.Y.K.A.S.F.r.$ YXYXYXYXYXYXYXYXYXYXYXYXYXYXYXYXYXYXYXYXYXYX",
"YXYXP XXGXUXUXUXUXUXUXUXUXUXUXUXUXUXDXmXuX/.M.S.p.- YXYXYXYXYXYXYXYXYXYXYXYXYXYXYXYXYXYXYXYXYXYX",
"YXYX3 ! =XPXUXIXUXUXUXUXUXUXUXUXUXUXUXUXUXNX8XL.a.& YXYXYXYXYXYXYXYXYXYXYXYXYXYXYXYXYXYXYXYXYXYX",
"YXYXYX- X.cXUXIXUXUXUXUXUXUXUXUXUXUXUXUXUXUXHX].u.# YXYXYXYXYXYXYXYXYXYXYXYXYXYXYXYXYXYXYXYXYXYX",
"YXYXYX@ _ X.DXIXUXUXUXUXUXUXUXUXUXLXzXlXNXJXIXiXg.S @ YXYXYXYXYXYXYXYXYXYXYXYXYXYXYXYXYXYXYXYXYX",
"YXYXYXYX@ P &XGXUXUXUXUXUXUXUXUXUXLX4Xz.^.6XyX^.v.C I YXYXYXYXYXYXYXYXYXYXYXYXYXYXYXYXYXYXYXYXYX",
"YXYXYXYXYXL $XcXGXUXUXUXUXUXUXUXUXUXxXQ.Z.J.N.Z.A.8.] YXYXYXYXYXYXYXYXYXYXYXYXYXYXYXYXYXYXYXYXYX",
"YXYXYXYXYXP $XCXcXnXGXUXUXUXUXUXUXUXLXaXQ.A.F.F.S.c.s &.YXYXYXYXYXYXYXYXYXYXYXYXYXYXYXYXYXYXYXYX",
"YXYXYXYXYX6 OXLXGXvX,XnXLXUXUXUXUXUXUXLXxXQ.J.D.S.A.q.x ; YXYXYXYXYXYXYXYXYXYXYXYXYXYXYXYXYXYXYX",
"YXYXYXYXYX' X.JXUXJX-Xo.>XLXUXUXUXUXUXUXJXaX/.J.F.F.B.k 3 YXYXYXYXYXYXYXYXYXYXYXYXYXYXYXYXYXYXYX",
"YXYXYXYXYX>.} jXUXUX:XF } $XCXUXUXUXUXUXUXIXMX[.H.F.F.q.D : YXYXYXYXYXYXYXYXYXYXYXYXYXYXYXYXYXYX",
"YXYXYXYXYXYX%.#XLXUX:X..<X! OXvXJXUXUXUXUXUXIXMX XH.F.V.4.m @ YXYXYXYXYXYXYXYXYXYXYXYXYXYXYXYXYX",
"YXYXYXYXYXYXwX .vXUX-X=.: U / o.-XJXUXUXUXUXUXUXfXT.D.F.v.3.I 4 YXYXYXYXYXYXYXYXYXYXYXYXYXYXYXYX",
"YXYXYXYXYXYXo W O.jX#XW YXYXYXU T oXnXJXUXUXUXUXKXtXT.F.F.V.5.k ] ).1.1.).] m b b b ` z + - YXYX",
"YXYXYXYXYXYXYXO U H ! 3XYXYXYXo @./  .-XDXUXUXUXUXHX7XZ.F.F.A.y.5.i y y i 6.w.y.y.e.7.u A ' + YX",
"YXYXYXYXYXYXYXYXo qX^ < YXYXYXYX@ $ <.e +XDXIXUXUXUXHXQ.S.F.F.F.S.V.V.B.A.D.F.F.S.F.F.V.f.0 z o ",
"YXYXYXYXYXYXYXYXYXYXYXYXYXYXYXYXYXYX: 1X2 e OXjXJXUXUXuXK.F.S.S.F.F.F.V.c.g.y.y.y.d.y.g.f.y.7 4 ",
"YXYXYXYXYXYXYXYXYXYXYXYXYXYXYXYXYXYXYXYXYXP / ~ OXcXJXBX~.G.F.F.S.A.y.u k l M I I I I R n k q > ",
"YXYXYXYXYXYXYXYXYXYXYXYXYXYXYXYXYXYXYXYXYX. - o #.! #XZXyXN.F.F.F.y.k -.;.+ = = = = = = @ o o X ",
"YXYXYXYXYXYXYXYXYXYXYXYXYXYXYXYXYXYXYXYXYXYXYXYX+ / W +.;X'.D.F.S.y.) - YXYXYXYXYXYXYXYXYXYXYXYX",
"YXYXYXYXYXYXYXYXYXYXYXYXYXYXYXYXYXYXYXYXYXYXYXYXYXYX3 2 O.@Xm.S.F.b.A + YXYXYXYXYXYXYXYXYXYXYXYX",
"YXYXYXYXYXYXYXYXYXYXYXYXYXYXYXYXYXYXYXYXYXYXYXYXYXYXYX= #.| E.A.F.B.Z 1XYXYXYXYXYXYXYXYXYXYXYXYX",
"YXYXYXYXYXYXYXYXYXYXYXYXYXYXYXYXYXYXYXYXYXYXYXYXYXYXYXYX6 #.c e.D.D.9.$.YXYXYXYXYXYXYXYXYXYXYXYX",
"YXYXYXYXYXYXYXYXYXYXYXYXYXYXYXYXYXYXYXYXYXYXYXYXYXYXYXYXYX3 6 f B.D.y.) YXYXYXYXYXYXYXYXYXYXYXYX",
"YXYXYXYXYXYXYXYXYXYXYXYXYXYXYXYXYXYXYXYXYXYXYXYXYXYXYXYXYXYX- v 8.A.c.V YXYXYXYXYXYXYXYXYXYXYXYX",
"YXYXYXYXYXYXYXYXYXYXYXYXYXYXYXYXYXYXYXYXYXYXYXYXYXYXYXYXYXYXYX> b y.V.3.R YXYXYXYXYXYXYXYXYXYXYX",
"YXYXYXYXYXYXYXYXYXYXYXYXYXYXYXYXYXYXYXYXYXYXYXYXYXYXYXYXYXYXYXYXI f B.t.w YXYXYXYXYXYXYXYXYXYXYX",
"YXYXYXYXYXYXYXYXYXYXYXYXYXYXYXYXYXYXYXYXYXYXYXYXYXYXYXYXYXYXYXYXo m i.B.s 3 YXYXYXYXYXYXYXYXYXYX",
"YXYXYXYXYXYXYXYXYXYXYXYXYXYXYXYXYXYXYXYXYXYXYXYXYXYXYXYXYXYXYXYXYX^ f B.4., . YXYXYXYXYXYXYXYXYX",
"YXYXYXYXYXYXYXYXYXYXYXYXYXYXYXYXYXYXYXYXYXYXYXYXYXYXYXYXYXYXYXYXYX. 1 8.y.b + YXYXYXYXYXYXYXYXYX",
"YXYXYXYXYXYXYXYXYXYXYXYXYXYXYXYXYXYXYXYXYXYXYXYXYXYXYXYXYXYXYXYXYXYX6 A y.d @.YXYXYXYXYXYXYXYXYX",
"YXYXYXYXYXYXYXYXYXYXYXYXYXYXYXYXYXYXYXYXYXYXYXYXYXYXYXYXYXYXYXYXYXYXYX;.C u E YXYXYXYXYXYXYXYXYX",
"YXYXYXYXYXYXYXYXYXYXYXYXYXYXYXYXYXYXYXYXYXYXYXYXYXYXYXYXYXYXYXYXYXYXYXU j.0 x L YXYXYXYXYXYXYXYX",
"YXYXYXYXYXYXYXYXYXYXYXYXYXYXYXYXYXYXYXYXYXYXYXYXYXYXYXYXYXYXYXYXYXYXYXYX6 Y < >.YXYXYXYXYXYXYXYX"
};
