/* XPM */
static char *fish16_xpm[] = {
/* columns rows colors chars-per-pixel */
"16 16 107 2",
"   c black",
".  c #07F808480848",
"X  c #0CAD0CCD0CBD",
"o  c #0D3D0DAE0D3D",
"O  c #0FA011811242",
"+  c #105010801050",
"@  c #1444146D1475",
"#  c #15E616361656",
"$  c #177717A81737",
"%  c #144417671939",
"&  c #18C918E918A9",
"*  c #183819191899",
"=  c #19791A9B1A5A",
"-  c #1C3C1CBD1BBC",
";  c #17571DBE2161",
":  c #1C0C22222555",
">  c #24C5258520F1",
",  c #20B126262929",
"<  c #2CCD2D5D2919",
"1  c #24242CDD31E2",
"2  c #29BA37473CED",
"3  c #3E6E3F5F3818",
"4  c #0ECF31014767",
"5  c #1868334343E4",
"6  c #1C1C3EBF5484",
"7  c #2A3A3C3C4757",
"8  c #1E1E43635B4B",
"9  c #1A7A47976484",
"0  c #1D9E49596595",
"q  c #1434502076A6",
"w  c #3474418148F9",
"e  c #37874CFD59FA",
"r  c #22E34B4B62E3",
"t  c #22A34DFE66E7",
"y  c #245454D57333",
"u  c #29BA5E0E7FAF",
"i  c #34E552226515",
"p  c #4E0E4E9E3CFD",
"a  c #509051B13F7F",
"s  c #69FA75955F1F",
"d  c #761677075B6B",
"f  c #682879B972E2",
"g  c #63B379897D6D",
"h  c #772778E86505",
"j  c #19CA5ACA8404",
"k  c #1C1C60908D0D",
"l  c #17E865C59929",
"z  c #1CFD68B898F8",
"x  c #0CCD70C0B191",
"c  c #13D472F3B110",
"v  c #11E277D7BA6A",
"b  c #14047A4ABCBC",
"n  c #1DAE7969B484",
"m  c #222262E38C1C",
"M  c #2C6C71B19E3E",
"N  c #21117414AA09",
"B  c #06978707DB0A",
"V  c #08A984B4D5B5",
"C  c #0E1E8A3AD878",
"Z  c #0EFF9666EB7B",
"A  c #04149585F514",
"S  c #04749A1AFBBB",
"D  c #040499D9FC1B",
"F  c #0BDC9858F1A1",
"G  c #14959999EB0A",
"H  c #2E7EA171DD3C",
"J  c #23D4A1E1E8A8",
"K  c #7E9E95D58D9D",
"L  c #7E1EBB0AB312",
"P  c #7B4BBF5FBDED",
"I  c #4171A1A1CC4C",
"U  c #6868B5F5C171",
"Y  c #909092525D2D",
"T  c #869688A86565",
"R  c #933394446595",
"E  c #A787A8686D6D",
"W  c #AA3AAAFA6E8E",
"Q  c #AECEB01F7323",
"!  c #ADADAEDE7969",
"~  c #B3A3B4C47616",
"^  c #BBABBC5C7484",
"/  c #BCBCBE0D7AAA",
"(  c #8383B8E8AAEA",
")  c #89D9C413B625",
"_  c #CC0BCCFC80D0",
"`  c #D393D4D483E3",
"'  c #D625D9F99141",
"]  c #C9F9E0A0A100",
"[  c #DFFFE0F08A5A",
"{  c #E0B0E1D18AFA",
"}  c #D948E8379C3C",
"|  c #C969E2F2A464",
" . c #E575E5F58DCD",
".. c #E4D4EE2D9A4A",
"X. c #EE6EEF0E91A1",
"o. c #EC8CF1D19807",
"O. c #F0D0F3F39757",
"+. c #F5A5F69695F5",
"@. c #F615F6E69605",
"#. c #F999FA599777",
"$. c #FA51FB739909",
"%. c #FBABFC8C98F8",
"&. c #FCD4FDAD9979",
"*. c #FCFCFDC9997D",
"=. c #FCFCFDE5999D",
"-. c #FCFCFDFD99BE",
";. c None",
/* pixels */
"T Y f 2 * ;.;.;.;.;.;.;.;.;.;.;.",
"^  .O.K g . ;.;.;.;.;.;.;.;.;.;.",
"W $.X.' I 6 # 7 i w + ;.;.;.;.;.",
"R +.=.=.] C z A V q 1 ;.;.;.;.;.",
"p #.=.=.=.) G S 9 ;.;.;.;.;.;.;.",
"o E =.=.=.=.o.P 4 ;.;.;.;.;.;.;.",
";.< { =.=.%.( L m ;.;.;.;.;.;.;.",
";.* _ ` +.=.} H B , ;.;.;.;.;.;.",
";.o ! ~ d { =...J l + ;.;.;.;.;.",
";.;.> h ;.3 Q %.| F v M N c k : ",
";.;.;.;.;.;.* a / U S n y r t 5 ",
";.;.;.;.;.;.;.;.- s Z m ;.;.;.;.",
";.;.;.;.;.;.;.;.;.# j n ;.;.;.;.",
";.;.;.;.;.;.;.;.;.;.% x ; ;.;.;.",
";.;.;.;.;.;.;.;.;.;.;.8 0 ;.;.;.",
";.;.;.;.;.;.;.;.;.;.;.@ e # ;.;."
};
