/* XPM */
static char * fish32_xpm[] = {
"32 32 249 2",
"  	c None",
". 	c #050C1C",
"+ 	c #03092A",
"@ 	c #01053E",
"# 	c #091339",
"$ 	c #121C2F",
"% 	c #112732",
"& 	c #040B5E",
"* 	c #0D1F45",
"= 	c #07107F",
"- 	c #1B2A42",
"; 	c #1F2F4D",
"> 	c #162157",
", 	c #1C2C5A",
"' 	c #1C3B53",
") 	c #142E7A",
"! 	c #1E3867",
"~ 	c #1E397D",
"{ 	c #253F5A",
"] 	c #29545D",
"^ 	c #32455F",
"/ 	c #214A7F",
"( 	c #29556E",
"_ 	c #315968",
": 	c #435E6E",
"< 	c #050E9A",
"[ 	c #030AB7",
"} 	c #0C18BD",
"| 	c #121FB9",
"1 	c #132999",
"2 	c #1D3C91",
"3 	c #142DAD",
"4 	c #152CBD",
"5 	c #1E37B6",
"6 	c #2A3EB5",
"7 	c #0818CE",
"8 	c #1021C6",
"9 	c #1025CE",
"0 	c #182DCE",
"a 	c #1839CE",
"b 	c #1839D6",
"c 	c #2139CE",
"d 	c #2C578B",
"e 	c #314382",
"f 	c #395D84",
"g 	c #294EA1",
"h 	c #2952B1",
"i 	c #315EA2",
"j 	c #3A59A6",
"k 	c #315CBC",
"l 	c #3F7883",
"m 	c #3E749D",
"n 	c #356DB2",
"o 	c #2142CE",
"p 	c #254AC1",
"q 	c #214ACE",
"r 	c #2142D6",
"s 	c #214AD6",
"t 	c #294AD6",
"u 	c #2B52C0",
"v 	c #2952CE",
"w 	c #295ACE",
"x 	c #2952D6",
"y 	c #295AD6",
"z 	c #315ACE",
"A 	c #376FC1",
"B 	c #316BCE",
"C 	c #3963CE",
"D 	c #3160D3",
"E 	c #3163DE",
"F 	c #366DD0",
"G 	c #316BDE",
"H 	c #396BDE",
"I 	c #3977D2",
"J 	c #3973DE",
"K 	c #397BD6",
"L 	c #397BDE",
"M 	c #496080",
"N 	c #556587",
"O 	c #597786",
"P 	c #4E62A7",
"Q 	c #4176BA",
"R 	c #5D76B6",
"S 	c #60769C",
"T 	c #4A7BCE",
"U 	c #427AD2",
"V 	c #4D879C",
"W 	c #4286B9",
"X 	c #5C85B6",
"Y 	c #5492A8",
"Z 	c #5790BF",
"` 	c #559CB3",
" .	c #5AACBC",
"..	c #688899",
"+.	c #7B86A4",
"@.	c #7788B9",
"#.	c #7D8CB9",
"$.	c #7390A6",
"%.	c #7E94A7",
"&.	c #7B9DA7",
"*.	c #7998B9",
"=.	c #79A8B9",
"-.	c #4284DE",
";.	c #468FD2",
">.	c #4A9AD8",
",.	c #5884CE",
"'.	c #5299D5",
").	c #458AE3",
"!.	c #4A94E7",
"~.	c #4A9CE7",
"{.	c #52ADDE",
"].	c #56B0D2",
"^.	c #5EB1DE",
"/.	c #54A0E6",
"(.	c #52A9EF",
"_.	c #5AADEB",
":.	c #5AB5E7",
"<.	c #5AB5EF",
"[.	c #5ABDEF",
"}.	c #6398CC",
"|.	c #7994C6",
"1.	c #66B1CD",
"2.	c #78A7C7",
"3.	c #77B6C8",
"4.	c #7EBDC4",
"5.	c #73BDD6",
"6.	c #7BB5D2",
"7.	c #63BDEF",
"8.	c #60C0CB",
"9.	c #63C0DD",
"0.	c #67D2D8",
"a.	c #7FCACA",
"b.	c #75C8D6",
"c.	c #7BDEDE",
"d.	c #63C6E7",
"e.	c #63C6EF",
"f.	c #67CEE7",
"g.	c #63C6F7",
"h.	c #65CEF1",
"i.	c #6BCEF7",
"j.	c #6BDAE7",
"k.	c #6BDEEF",
"l.	c #6BD6F3",
"m.	c #6BDEF7",
"n.	c #73D2E2",
"o.	c #75DEE4",
"p.	c #73DEEF",
"q.	c #73DEF7",
"r.	c #73E7EF",
"s.	c #73EFEF",
"t.	c #73E7F7",
"u.	c #73E7FF",
"v.	c #73EFF7",
"w.	c #73EFFF",
"x.	c #7BEFF7",
"y.	c #7BF7F7",
"z.	c #7BF7FF",
"A.	c #848EAF",
"B.	c #8890B7",
"C.	c #909CB3",
"D.	c #88A0AD",
"E.	c #8CADB5",
"F.	c #8EB5B7",
"G.	c #90A5B5",
"H.	c #94ADB5",
"I.	c #94ADBD",
"J.	c #9CADBD",
"K.	c #94B5BD",
"L.	c #9CBDBD",
"M.	c #A5BDBD",
"N.	c #8595C2",
"O.	c #8C96C0",
"P.	c #9496C0",
"Q.	c #9C9CCA",
"R.	c #84AAC8",
"S.	c #8CA9C6",
"T.	c #84BDCE",
"U.	c #8CB9CA",
"V.	c #90A0C1",
"W.	c #94ADC6",
"X.	c #99A2C0",
"Y.	c #98A5CA",
"Z.	c #9CADC6",
"`.	c #94B1CA",
" +	c #91BACB",
".+	c #9CB5C1",
"++	c #9CB5CE",
"@+	c #9CBDC6",
"#+	c #9CBDCE",
"$+	c #A5A5CA",
"%+	c #A5ADCA",
"&+	c #A5B5C6",
"*+	c #A5B5CE",
"=+	c #A5BDC6",
"-+	c #ADB1CA",
";+	c #A9BDCA",
">+	c #ADBDCE",
",+	c #ADB2D3",
"'+	c #ADBDD6",
")+	c #B5BDCE",
"!+	c #BDBDE7",
"~+	c #84CECE",
"{+	c #8FC9CF",
"]+	c #81C8D3",
"^+	c #9CC6CE",
"/+	c #A5C6CE",
"(+	c #A0CACA",
"_+	c #A5CED2",
":+	c #ADCBD3",
"<+	c #B5C6CE",
"[+	c #B5CECE",
"}+	c #B1C1D2",
"|+	c #B5CED6",
"1+	c #B9C1D6",
"2+	c #BDC6D6",
"3+	c #BDC6DE",
"4+	c #BDCED6",
"5+	c #BDCEDE",
"6+	c #BDD6D6",
"7+	c #C6C6D6",
"8+	c #C6C6DE",
"9+	c #C6CED6",
"0+	c #C6CEDE",
"a+	c #C6D6D6",
"b+	c #C6DEDE",
"c+	c #CAD2DE",
"d+	c #CED6DE",
"e+	c #CEDEDE",
"f+	c #CECEE7",
"g+	c #CED6E7",
"h+	c #CEDEE7",
"i+	c #D6D6E7",
"j+	c #D6DEE7",
"k+	c #DEDEE7",
"l+	c #DEDEEF",
"m+	c #D6E7E7",
"n+	c #DEE7E7",
"o+	c #DEE7EF",
"p+	c #DEEFEF",
"q+	c #E7E7EF",
"r+	c #E7EFEF",
"s+	c #EFEFEF",
"t+	c #E7E7F7",
"u+	c #E7EFF7",
"v+	c #EFEFF7",
"w+	c #EFF7F7",
"x+	c #F7F7FF",
"y+	c #F7FFFF",
"z+	c #FFFFFF",
"z+z+z+z+z+z+z+y.y.~+~+~+~+_+h+z+z+z+z+z+z+z+z+z+z+z+z+z+z+z+z+z+",
"z+z+z+z+z+z+z+z+z+z+z+z+z+z+z+z+z+z+e+l 8.j.r+z+z+z+z+z+z+z+z+z+",
"z+z+z+z+z+z+z+z+z+x.w.x.t.0.9.z+z+z+z+z+z+` p.z+z+z+z+z+z+z+z+z+",
"z+z+z+z+z+z+z+z+z+T.t.q.9.z+z+q.l.% r+r+(+/+n+z+` z+z+z+z+z+z+z+",
"z+z+z+z+z+z+z+z+z+T.q.q.l.&.z+` ' z+:+l.9.8.f.r+z+z+z+z+z+z+z+z+",
"z+z+z+z+z+z+z+z+z+z+h.z+z+a+- :+Y z+z+h.h.z+z+z+z+z+Y z+z+z+z+z+",
"z+c+i. .z+z+z+z+z+z+h.i.h.] z+{ M.z+z+h.d.z+5.h.V z+e.z+z+z+z+z+",
"z+7.7.[.e.Y z+z+z+z+[.].$ O z+[.{ :.' z+z+[.[.f z+n+e.n+z+z+z+z+",
"z+[.^.` :.:.y+z+z+R.[.% z+z+z+^.z+_ z+z+z+7.[.M.z+7.7.Z z+z+z+z+",
"z+_._._.*.%.W : ( D.z+r+2.z+{._.N R._.z+z+_.% z+z+<._.( W z+z+z+",
"z+{.'._.(.z+&+z+z+z+z+z+R.z+R.{.D._.{.z+z+{.<+z+z+>.f z+z+z+z+z+",
"z+/./.c+z+G.a+/.~.z+/.z+/.z+!.z+z+z+z+D.z+>.s+z+z+z+z+++% >.z+z+",
"z+~.~.!.>.z+z+~.!.k+~.z+~.c+*.z+z+z+z+' z+Q z+z+o+&+z+!.^ ,.m z+",
"z+).Q Q ( y+z+/ n z+).z+!.z+z+z+).N z+n z+z+z+U Q n z+$ z+z+T z+",
"z+f . 9+z+z+z+z+v+g+).z+).z+2+}.T d z+Q z+z+o+' 9+( z+q+z+z+Q z+",
"z+i+/ d ' z+z+z+z+z+S U i A z+L z+-.r+X n+z+K z+L z+X z+z+|.I z+",
"z+z+z+z+z+z+z+z+K z+z+L i L y+U -+I A.2+-+z+K z+J z+@.S z+L -.z+",
"z+z+z+z+z+z+z+J H , z+z+d H G.G $ d S 2+N F k R F z+z+* z+g ! - ",
"z+z+z+z+z+z+z+H H k z+g i+F 9+H ..F z+f -+G g s+k z+z+k+r+: z+z+",
"z+z+z+z+z+E D ~ z+z+z+z+u w S P A.S h g z+E z z+z+z+z+X.k+D y z+",
"z+z+z+z+z+D v h z+z+z+z+2+P , z+2 v z+s+z+y y c+z+z+z+z+@.h 2 z+",
"S v t x v v z+t g z+z+z+z+c+z+q k+z+z+z+z+z+z+v S z+z+v ) z+z+z+",
"z+p t q t t # q q z+z+z+z+2 z+s t O.r+z+8+z+z+t ) z+z+2 ^ z+z+z+",
"z+z+z+) o o o c u+7+l+z+z+o o z+c c c o o o ~ 3 5 * B.z+z+z+z+z+",
"z+z+z+z+! a c o c 3+z+z+c 5 5 z+-+a a c c a 5 t+A.z+z+z+z+z+z+z+",
"z+z+z+z+z+z+z+z+z+z+z+z+z+z+z+8+3+z+& 0 0 4 3 S z+z+z+z+z+z+z+z+",
"z+z+z+z+z+z+z+z+z+z+z+z+z+z+r+4 0 R z+@ & # e z+- z+z+z+z+z+z+z+",
"z+z+z+z+z+z+z+z+z+z+z+z+z+8 8 8 8 8 8 = * 8 8 z+z+z+z+z+z+z+z+z+",
"z+z+z+z+z+z+z+z+z+z+z+q+4 } } 7 8 } < A.z+8 8 z+z+z+z+z+z+z+z+z+",
"z+z+z+z+z+z+z+z+z+z+z+z+z+z+z+z+z+z+z+-+[ @ z+z+z+z+z+z+z+z+z+z+",
"z+z+z+z+z+z+z+z+z+z+z+z+z+z+z+z+z+z+z+R [ q+z+z+z+z+z+z+z+z+z+z+",
"z+z+z+z+z+z+z+z+z+z+z+z+z+z+z+z+z+t++.z+z+z+z+z+z+z+z+z+z+z+z+z+"};
