/* XPM */
static char *icon64[] = {
/* columns rows colors chars-per-pixel */
"64 51 256 2",
"   c #29C138B0391A",
".  c #3A7538B03821",
"X  c #2F222F222E91",
"o  c #39853D7E467E",
"O  c #3F044CCC4F1E",
"+  c #46EA43173F2B",
"@  c #4BEC4C904B50",
"#  c #476347EE496B",
"$  c #4BB14DB252B4",
"%  c #4DA152E14C1A",
"&  c #4E0F559F5564",
"*  c #52A74CAE4E31",
"=  c #54F34D625326",
"-  c #58AF4D1A5928",
";  c #53EF56354CA7",
":  c #582E59134F6F",
">  c #554B5B9B53E5",
",  c #547C5B2E5E2D",
"<  c #5B0654715566",
"1  c #5D4354955B6D",
"2  c #5BB95D43539E",
"3  c #5C2B5B7A5B1F",
"4  c #54B756745AD4",
"5  c #56A55E536164",
"6  c #5C3A5C8C6278",
"7  c #57F054256150",
"8  c #5EBF6181569E",
"9  c #5C2D638D5CFC",
"0  c #560A651B5CF4",
"q  c #5B6B64106610",
"w  c #5F30658C69B8",
"e  c #5EB86AAA6C4F",
"r  c #5C1867296542",
"t  c #638C5BE75D95",
"y  c #620B56DA5EDD",
"u  c #65925B1D6408",
"i  c #69F25E0E664B",
"p  c #6B0E5EA56A46",
"a  c #648B599464EF",
"s  c #62054DED619E",
"d  c #624D63BD5726",
"f  c #644465DA5BC2",
"g  c #665A6A695EA7",
"h  c #6BF86CCC5E1B",
"j  c #6A5667A85A06",
"k  c #76C477455A53",
"l  c #66CE72DC5490",
"z  c #651D63426565",
"x  c #633E64F96AF2",
"c  c #64C86BE66476",
"v  c #63956D5D6D48",
"b  c #6BDB647D651D",
"n  c #6C8F63E16D3A",
"m  c #6BF96D746360",
"M  c #6B356C066C66",
"N  c #65706DD0712F",
"B  c #6E3C66C27283",
"V  c #6CE06D7B745B",
"C  c #6602719B6D9F",
"Z  c #6E65726A6495",
"A  c #6BEC73466BD1",
"S  c #6C6A78486B9B",
"D  c #6603733E73D0",
"F  c #6B0974F27492",
"G  c #6DBC7AC47690",
"H  c #6D897BB37ADF",
"J  c #6C2F76617912",
"K  c #71DF64B86DBB",
"L  c #71FE6CF46516",
"P  c #74F16CB56CD5",
"I  c #7C506DE86ED6",
"U  c #74B565E6747C",
"Y  c #74416C8C75A4",
"T  c #7A056DEA74A6",
"R  c #7C006CE17C5D",
"E  c #767E6B487933",
"W  c #74C575546628",
"Q  c #749D74A96C20",
"!  c #75D37AFA6C7A",
"~  c #7A5275D96C57",
"^  c #7BB37C796BE6",
"/  c #7722796865E1",
"(  c #73E175027C02",
")  c #74927B967371",
"_  c #744B7CC77E03",
"`  c #7C0E74047535",
"'  c #7BD173837D16",
"]  c #7E477B1973D7",
"[  c #77C97719773A",
"{  c #80666F4880C1",
"}  c #7D58759C8305",
"|  c #7D507D2E8566",
" . c #77007CEC82D3",
".. c #6F7980CE7F65",
"X. c #7EA886956F8B",
"o. c #75F582F37E17",
"O. c #7BCA84057C8D",
"+. c #7D1A821474FE",
"@. c #74A783EB838B",
"#. c #7AB786B282C1",
"$. c #7D2C8B0185E9",
"%. c #7D5B8CF98C26",
"&. c #7CA8850B88A9",
"*. c #7E5291E18FE0",
"=. c #7FA592079294",
"-. c #7DF58F8291A4",
";. c #813A7F796FEA",
":. c #83037E6C7635",
">. c #842F7BA17CC2",
",. c #821676CA7C99",
"<. c #824E6FFA81A5",
"1. c #854F747385B8",
"2. c #8737777D894E",
"3. c #83A979E28693",
"4. c #85E37C908A5F",
"5. c #8BE27CE18D7F",
"6. c #8A74775A8A7F",
"7. c #8F087E409156",
"8. c #91777EF5907B",
"9. c #924B7E6F9310",
"0. c #836A853D6E07",
"q. c #8415840E751D",
"w. c #85C1845A7B47",
"e. c #8AC4860E7D05",
"r. c #8CF78C6A7BE9",
"t. c #87AB898E789D",
"y. c #8F4291697C3F",
"u. c #96518E817B41",
"i. c #91EC92137EC3",
"p. c #9A4298A178B2",
"a. c #973794886D38",
"s. c #9B12A32C7C0C",
"d. c #A4449E8A7864",
"f. c #A19B9A65688F",
"g. c #A494A1C46E68",
"h. c #AA46A8987BCA",
"j. c #B286B0F7792F",
"k. c #851C84068D13",
"l. c #84ED8D17850C",
"z. c #845A8D2E8CC5",
"x. c #8CC28560835B",
"c. c #8A85829E8E68",
"v. c #8DC78AD78460",
"b. c #88728659860C",
"n. c #8D2D853C9219",
"m. c #8CF48BF3947E",
"M. c #89F68D9994E0",
"N. c #859892308D05",
"B. c #8C69948C8CED",
"V. c #8A6091AD866D",
"C. c #84A0942D93B7",
"Z. c #8BB0968A9344",
"A. c #8DF39AC39680",
"S. c #8D029C8F9C4C",
"D. c #8C9C957B99C7",
"F. c #91DD8CCC857B",
"G. c #94C48CF28C92",
"H. c #910786E48B88",
"J. c #949D83DB94DE",
"K. c #94BB8C2E957A",
"L. c #9B7A86C49BD2",
"P. c #9D088CA59C67",
"I. c #96668BF89822",
"U. c #947F94678538",
"Y. c #95C394788BDB",
"T. c #9C709CC08C02",
"R. c #9A00997B8974",
"E. c #945493AA9C7B",
"W. c #942B9D34957D",
"Q. c #94369B159DF5",
"!. c #9C3594459416",
"~. c #9D83939C9CDB",
"^. c #9DB799E494B7",
"/. c #A0028A9CA164",
"(. c #96789C49A17F",
"). c #9C5E9C90A4B3",
"_. c #9EB59656A317",
"`. c #8E7E9E8EA11C",
"'. c #8EB0A1659F3A",
"]. c #9BA5A484833B",
"[. c #940DA1F69D15",
"{. c #9D00A5679CA1",
"}. c #9BFFA2EF976F",
"|. c #8F6CA36EA2D4",
" X c #9425A5A8A45F",
".X c #9C92AADEA56D",
"XX c #9CB4AC91AC66",
"oX c #9817A83AA99A",
"OX c #9AC3AE89B183",
"+X c #9CAFB2CFB35E",
"@X c #9EA1B0F1ADD4",
"#X c #A27B9FCA8B74",
"$X c #A29195759DE1",
"%X c #A5B39D2D9CF5",
"&X c #A2739BC59609",
"*X c #A3B98E3CA369",
"=X c #A47C9C2BA5A9",
"-X c #AB48954EABDB",
";X c #AD2F9AE3AE21",
":X c #A6A399F8A7EA",
">X c #AEAA9BD2B18E",
",X c #B3E79DE6B3EE",
"<X c #B1F69C1AB05F",
"1X c #A404A3F38E72",
"2X c #AA59A8968815",
"3X c #A5E5A4C59A9E",
"4X c #ABC3AC4B95EE",
"5X c #AE7DAE059C04",
"6X c #A672A6CA98BE",
"7X c #AD9EB2EF9A22",
"8X c #B434A9AE89CB",
"9X c #B36EAFAD9B69",
"0X c #B843B8018A94",
"qX c #B3E6B3169D76",
"wX c #BA5EB8B893FC",
"eX c #AAB6B0DD8CF5",
"rX c #A3E5A3D9AC63",
"tX c #A5B5AE73A563",
"yX c #A4EFAE1CAB92",
"uX c #ACC9A420A416",
"iX c #AD07A304ADC0",
"pX c #ACB1A92AA325",
"aX c #ACA2A5A6B284",
"sX c #ABDAAD8FB556",
"dX c #AC96B616AD38",
"fX c #A869B349ABA4",
"gX c #AC5BB73EB2A2",
"hX c #AE53BAA8B514",
"jX c #A8B2B7E7B847",
"kX c #B583AD57AC2C",
"lX c #B1FEAA57A787",
"zX c #B489A2F0B656",
"xX c #B7B7ABFCBB51",
"cX c #B734B50EA3F2",
"vX c #B771B2D0AB3D",
"bX c #BA9AB857A946",
"nX c #B429BD57B481",
"mX c #B878B682B8DE",
"MX c #BB79B8DAC364",
"NX c #ADC7C000C218",
"BX c #B983C3A8BBD8",
"VX c #BDD4C706C2C6",
"CX c #BC4BCA27C81A",
"ZX c #C31EBD098931",
"AX c #C1ABBF25AD79",
"SX c #C564BDCABBBB",
"DX c #C230BC79B5D0",
"FX c #C1A5AEACC168",
"GX c #C66BBC1AC90F",
"HX c #CB57C6818C10",
"JX c #CA03C64BBCA0",
"KX c #C2DCC198AF0E",
"LX c #CA84C6E1C6AD",
"PX c #D251C5FFCE8D",
"IX c #D641D509C934",
"UX c #CE68CD47D302",
/* pixels */
"/ ~ h j f j 2 ; ; : d h j h f h W ^ ^ ^ ^ u.i.U.i.R.#X4X7X5X6XqXqXbX7X9X7XqXqXbXcX4X1X1X1X1XR.R.].1Xp.i.r.r.r.t.q.^ ;.q.W W h h ",
"U U U i a B y - = 1 p U u u u p B U U U R 5.5.1.5.J.*X;X-X:X-X;XzXzX-X/.-X<X,XiX;X;X-X;X;X/.L.L.L.L.9.6.1.5.1.,.<.R <.' E U U K ",
"C r e e D D e q q x C G e e x e D D D @.@.-.%.%.-.S.(. XoXoX+X+X@XOX XoXOX+XOXXX+XOXoX+XoXS.C.-.-.-.%.-.%.-.o. .@.H H H J D N F ",
"W Z Z W / ! h j W ~ W ~ ! W h Z W ^ t.t.r.i.i.i.i.U.T.].6X7X9X4X4X7X7X7XqX5X4X7X4X4X7X6X6X].T.U.U.i.y.r.r.r.+.;.^ ^ ~ ^ / / ^ ~ ",
"R R R U U U R U R { E R R E T U R J.J.7.6.5.5.J.P./.*X*X<X<X-X-X-X,X;X-X:X/.*X;X;X-X-X;X-X/.L.J.I.L.J.8.5.<.R ,.R R T U E U Y R ",
"D F C v e e C C C C F J _ @.#.v o.z.z.%.@.@.@.#.-.C.C.D.oXXX X'.'.'.[. XS.-.D. XS.C.Z. X|.|.S.C.C.%.%.$.@.F D J v v v v e D e N ",
"8 2 2 : ; ; : d d 8 d m h W Q h h m m ~ W m L W W W ! q.t.t.r.q.U.}.U.6X6X^ ^ +.~ Q ^ q.t.q.q.^ W W Z m h d d d 2 : ; : 2 2 2 f ",
"K i u u 1 - y i U p K K p p p p K K U T u.u i K n U K E R R 1.~.:XP.$XJ.E K T c.d.8XZX1.H.K.P.$X~.L.5.P u a u.u y y 1 1 - - 1 u ",
"e q q q , q e v N D v e v ! X.0.p.p.p.h.A , q e e e N J %.Z.Q. X{.C. .o.p.].].R.B.eX.XsXjXbXfXXX+XyXD.D q / r.w q , , & , , , q ",
"Z Z f d 8 f m m m p.j.h.d.0Xt.X.X.a.0.a.: ; 2 2 f W q.Y.lXtXbX3Xr.t.0.h.2X1X6XT.Y.3X6X3X6Xr.q.] t.3XZ h g h.d 2 d d 2 2 2 2 8 9 ",
"p u u u t n i i n P b p T h.W n L K h.t ; # t b 2XwXHXcX=XiXaX:XP.~.K.K.0X,.U h ` R # Y r.E 3.T K 1.* u u.~ L 1 1 1 a u 1 u t t ",
", , , , q w e q q q x q h.. o     l k g.2Xk.J 2XQ p.wXQ.(.D.D.yXXXz.D k HXwX0X0.w ( &.].6X(.A.eXh.0X, A h.h.ZX5 , 5 6 , q , q w ",
"2 ; ; : > 2 d f g d g a.0.2 d . +.HX0X0XT.U.0.g.f.h j r.1X~ h Y.3XY.h.HXp.g > 2 B.v.U.wX].^.^.1X0Xj h j.j.p.k d 8 d d 8 8 d f c ",
"1 * = 1 y y u u i n P h.t b # ] 8X8X&X#X3 R p.g.+ e.p.8X#XP n !.=X~.b a.. . t 1 ' z wX&X#X] e.wXh.2 j h.i h.b P u i u t u u b n ",
"# $ $ , 4 5 q q 5 w +.m ( D 6 J 4X).M eXs.v.v k k 5XQ.O.q w @.)..XM % [ w 6 q , @ Z.wXqXK.v D.c o 4 1XM N s.s.t.e x x w w x q v ",
"% ; : : ; : > 2 > 2 d S v.@ f m V.V.) Y.b 1 9 X * r ~ Q g f Q 3X3X[ +.Z m f c % X 2 B.U.S q.3X3 Y.2 x.[ Z m g m c c g m c f > : ",
"$ = * * * - - < * - ` c.T < u b K.!.%XK.b I R >.I $XK.T K K >.~.!.!.R n K 3.c.b < ` =XiXlX$X%XK.$XG.Y.$XK K K u i i b K n u < < ",
"# # # # # $ & $ , | z.x , 3 4 F E.Q.z.V F _ | | k.XX_ M N J D.).| | v w e z.).D v | yXMXMXM.yX[.Q.Q.rXQ.J ( F v x x x V F 3 4 5 ",
"% > % # @ % ; 3 Q l.O.2 > : > 2 B.{.3XV.V.+.! O.t.tXY.A m S w.W.W.W.t.m W O.6X+.! V.vXBX{.tX}.vX{.}.6XtXl.) ! Q Z Q l.B.l.m q > ",
"= @ @ # # < b n ` >.1 = b n = P $X!.c.G.] ` T ` H.$X] K P T ~.kXDX=X,.T T v.$X3.T =XSXuXK.kX=XkX%XuXlX=X` P T 1.>.x.K.!.G.t K t ",
"4 # O # # ( v V H ( x 6 ( _ V _ k.w m.Q.| J V V #.D.| V ( ( ).oXE.Q.&.J _ z.).| |  XMXE.D.sXoXMXaX).rXD.( ( z.&.k.z.Q.Q.m.V J z ",
"3 % + + 2 A : c ] A 9 ) A c f Q ) ) Y.W.B.m A Q Q l.) A O.+.B.6Xw.l.l.) G t.dX}.t.l.BXnXbX{.tXmXnXnXnXB.w.}.tXY.l.l.^.W.B.Y.c A ",
"3 * @ t 1 < < ` P P t [ t u 3 ` G.Y.G.K.P u n ` 4.Y.!.!.>.` x.4.P :.5.T T x.kXH.H.!.lXGXmX$XSXGXmXlX%X=XmXkX=X!.G.!.=XG.c.w.b P ",
"x 4 B v $ $ 6 ( | | ( 4 # # 3 z m.M.| z.( x k.(.E.).k.| m.&.| M.| ( m.| } k.mXE.m.Z.rXMXLX).sXmXsXmXMXMXmXsX).D.| E.E.k.z.k.V 3.",
"9 2 c 3 A ; > v ] ) > @ # # > @ O.B.[ #.#.Y.{.[.{.W.B.B.z.{.l.Y.O.l.{.B.t.B.tXW.B.Y.{.BXBXfXW.nXpX.X{.gXnXnXnX{.l.l.N.z.t.l.A ) ",
"< b ~ M b < 1 w.b.` * @ @ < # ; P ] ] v.!.!.3XuX%X%X!.G.uX!.,.!.3.&XmXv.c.Y.!.!.!.%XLXPXuXDX%XK.K.G.v.kXvXmXkXpX&X$X!.G.c.] j 4.",
"6 q ( n 6 z - ( k.| = $ $ $ # $ 7 x | Y } ).rX=X).E.E.rXmX&.( k.K..XMXE.| M.K.m.D.E.LXUXMXQ.mXmXrXrXsX).xXmXrX~.Q.rXrX).E.m.z E ",
"2 > > G O.r 9 l.V.#.; & @ & 3 3 A Q l.q c {.dXtXtXtXtXdXW.O.O.l.gXBXvX{.z.B.A.Y.B.A.CXUXLXdXgXgXfXtXnXnXnXBXgXdX{.6XtXW.N.l.A #.",
"3 < < b w.P ` G.G.x.t z t d b f ] T Q >.` x.lXmX^.kXlXx.e.w.x.x.mXmXvXuXx.G.Y.!.K.^.JXLXLXkXlXkXlX&X3XDXmXSXDXkX=XlX^.x.>.~ I G.",
"B 6 u 6 n ( z ( | ( 3 1 6 n x n ( V 3.m.E.3._.MXaXrXm.c.4.| | } iXGXMXMXE.n.M.K.K.E.).LXGXVXxXMXMXMX:Xn.).MXsXxXMXsXxX=XE.( } E.",
"v A C c 9 c #.A V.l.0 & > , r 9 3 c v l.tXdX.XZ.N.V.N.z.z.z.+.#.nXCXVXnXB.V.Z.Z.B.B.W.BXCXBXnXBXBXVXhXN.l.tXBXBXBXBX}.W.[.V.W.N.",
"I L m b f < b P x.x.t < < f t j z m L x.lXvX5Xv.G.x.F.F.G.Y.v.v.vXJXSXDXG.v.F.G.F.v.v.lXmXDXpXuXvXDXSXuXF.v.^.kXkXlXvXmXvXF.!.G.",
"Y V V E n 6 1 6 Y K.k.6 1 3 i n B n ( ~.xXsXMX_.m.3.c.m.c.4.4.| ~.MXGXGXk.| n.n.n.k.k.n.rXxXrXaXaXsXMXGXm.4.c.E.iXaXMXiXE.k.P.m.",
"c F F A C r e C C N.z.M q r e D G #.$.fXhXBXVXyXB.l.#.O.o._ #.N.gXBXBX.X#.#.z.N.V.Z.W.A.hXyX{.Z.Z.A..XfXV.#.$.N.V.oXBXVX.XB.N.W.",
"W P P Q L m m b b L ] Y.] Y.e.:.v.3XvXSXJXSXJXJXDX^.w.>.^ >.:.e.lXSXmX3X>.w.l.e.x.lX&X3XbXmX3X&X^.&XpXlX:.:.>.w.e.G.G.Y.Y.F.c.R.",
"n n B B Y B n n z n B B | :XI.E.xXMXMXxXsXMXGXMXMX_.4.} ( 3.} 3.aXmXmXP.} 1.| J.E.I.c.=XaXsX,XiX;XxXmXI.( 3.} 1.3.k.k.c.n.K.c.I.",
"e w C F F F C c C F _ G o.Q.W.[.nXBXhXhXXXCXVXBXC.O.#.#.o.O.@..XhXgXgX$.#.z.[.O.) H #.#.N.A..XyXXXgXA.o.O.$.$.#.$.$.l.N.C.Z.N.W.",
"W f m L L L ~ Q ~ ] e.q.w.e.3X3XlXpXSXbXuXKXJX&Xe.e.w.q.] :.q.Y.vXvXvX3Xq.F.r.q.] :.~ ` q.x.&X5XlXbX^.w.] q.w.w.r.e.v.x.F.F.F.Y.",
"B z n n U Y ' | 3.4.c.4.5.k.=X:XaX_.xX_.:XxXsXn.c.4.1.} ( R R E.xXxXaXiXc.3.| 1.| } ' ' } E 3.=XsXiXiX3.} 4.4.c.5.n.c.n.K.n.I.~.",
"F G F F G H @.#.$.%.z.$.%.$.A.XX XfXoXjXgX XgXXXW.z.@.G G G G O.[.XXgXjXgXoXZ.%.#.#.@.H $.A.[.Q.XXfXS.#.#.%.N.C.N.C.Z.C.C.Z.A. X",
"F.q.w.:.q.w.q.` m L r.F.~ e.r.Y.v.^.pX5X3Xe.w.&Xb.vX3XF.v.2 t L ! 3X3X3X3XbXbXbXF.~ F.w.~ 2 Y.3XlXlXbX5Xe.] r.r.r.Y.Y.U.F.F.Y.^.",
"3.5.4.4.5.1.' u B 4.5.n.n 2.4.4.T :X4.( J.7 E b Y iX=XU = t 6 b.I.n.| 1.c.R P.n.R zX=XE [ U R 3.D.n.MXE.x a s 1.V } n.K.I.K.I.$X",
"%.$.%.#.$.z.v H S C #.D $.z.$.0 F S.@.H D c v > G H $.H q v & & r . # @ O > e r oXA.N.S.#.q C _ H N [.O.# $ 9 v O o.C.A.W.A.A. X",
"T.F.F.r.v.U.w.r.! t.w.r.t.e.t.+.S q.! t.+.q.c c 9 m W Q Q f d f Z 2 g c Z g W Q W m L ^ ~ l.+.e.e.w.Y.A.bXW.t.m P T x.Y.Y.Y.^.3X",
"J.n.J.J.n.J.J.c.8.5.8.5.5.3.5.7.7.5.5.3.3.3.' E U E { { U n p u $ E E U U Y U n p p n p a a p B 3./._.iXxXGXFXxXxX:XK.I.P.E.*XzX",
"oX X X.XXX.X X X X XS.[.S. XS. X'.S.Z.[.S.C.C.$.$.l.@.o.H @.H H o.H _ H o.o.H F F F G J C J H H @.#.$.S.[.oXXXXX@XoXoXgXhXhXBXBX",
"cXqXcXqXbXbXcXqXqXbXqXqX5XqXqX5X4X#X}.1X3X].1XT.R.R.R.r.i.U.t.t.q.^ q.e.r.r.e.Q W ^ :.^ q.r.t.U.r.U.T.9XcX5X9XlXbXAXSXJXJXLXIXIX",
"zXzXzX>X<X<X<XzXzXzX,XzX>X,X-X-X-X*X/.*X/.L.L.L.7.J.J.J.L.8.3.R { E 1.1.} { U U R E 1.1.2.5.9.9.7.L./.-X-X-X,X,XDXGXGXGXPXGXPXPX",
"jXjX@XoX XoXXX+X+X+XoXXX X|. XOX|. X|.S.*.=.%.-.%.*.*.=.z.@.@.@.$.@.o.H H F H F H F H @.@...%.C.C.'.oXoXoXXXjXNXNXNXCXCXCXUXCXUX",
"cXbXqXeX1X6XqX5X4X4X1X1XT.U.T.eXT.T.i.r.r.y.r.i.i.r.t.y.q.q.r.r.y.r.] ^ ^ / Q ~ ! / ^ q.;.q.t.R.1X4X4X7X9XpXbXbXKXbXAXLXLXJXIXIX",
"xXzXzX>X-X-X-X-X-XL.*X*X/.L./.P.L.9.9.6.1.5.8.7.6.6.5.2.<.6.1.1.2.1.1.<.R U E U U U R 1.1.6.9.L./.*X:X>X-X,XzXMXxXSXFXFXGXPXUXUX"
};
