/* XPM */
static char *icon48[] = {
/* columns rows colors chars-per-pixel */
"48 38 253 2",
"   c #39C636CB3E07",
".  c #3CCC3B92427B",
"X  c #4516447C4601",
"o  c #44F0462F4B38",
"O  c #47754B594582",
"+  c #4C9B426D465D",
"@  c #4BC145FF4ED6",
"#  c #48F14B8046A1",
"$  c #4EA44CA54C02",
"%  c #448A485B51EA",
"&  c #4BC24C2C524F",
"*  c #4D3F52B14CBC",
"=  c #4718532959C1",
"-  c #52094D2E4DF8",
";  c #53C24F0850D1",
":  c #52C952A64F11",
">  c #588B50A75040",
",  c #53C553C0543B",
"<  c #55A755A65C27",
"1  c #552F5AD55574",
"2  c #5755596F5D4C",
"3  c #5BA156FC56CD",
"4  c #5BB9574A592C",
"5  c #5A6359E15664",
"6  c #5C5B5D045B3E",
"7  c #55BA564A62DF",
"8  c #5BD55BD562A0",
"9  c #5D4662F05D7B",
"0  c #5FD663BE6358",
"q  c #636A5D645CEA",
"w  c #68D86042604D",
"e  c #63985EB36249",
"r  c #66D96A164FFB",
"t  c #614965F85783",
"y  c #632662165E99",
"u  c #648068E65F6A",
"i  c #6950606E6022",
"p  c #7731730451E9",
"a  c #64A7655A62D0",
"s  c #64E164ED6BEA",
"d  c #64F56BB16536",
"f  c #673C6C6A6B3E",
"g  c #6B6D641464B0",
"h  c #6B6366A86A4B",
"j  c #6B046B36663F",
"k  c #6DC06C516BBB",
"l  c #6CC36D4174E6",
"z  c #6FCD6FB2799A",
"x  c #63AD70D96269",
"c  c #6848712A68AE",
"v  c #6BD0738A6C55",
"b  c #700E78FD6FEB",
"n  c #6F5C743F7349",
"m  c #688173097970",
"M  c #6F587BE97397",
"N  c #714C676066BE",
"B  c #721169A6649B",
"V  c #744C6C8F6C5E",
"C  c #79846F7E6EC1",
"Z  c #747C6F1F738F",
"A  c #70A7703179E6",
"S  c #7A9A70427151",
"D  c #747272AC6302",
"F  c #73A673556EAF",
"G  c #72C27B0C7045",
"H  c #789E727A7049",
"J  c #7A9D7B286842",
"K  c #74A073C474FA",
"L  c #74D775187D1B",
"P  c #74527B9974E5",
"I  c #76917A337D97",
"U  c #7C2B74B17438",
"Y  c #7B3A75DF7B21",
"T  c #7BBC7B9A7664",
"R  c #7EA67B267C73",
"E  c #76D176648468",
"W  c #7D017CC883E4",
"Q  c #7F6F7F2C8A3C",
"!  c #7BA880CB6C5C",
"~  c #777681BC77AC",
"^  c #783182CA7947",
"/  c #7C0C82FD7439",
"(  c #7C5984B57C33",
")  c #7F4589887F59",
"_  c #7F0181EC8669",
"`  c #807D82D18894",
"'  c #7F8289FB82A7",
"]  c #84C47B97679D",
"[  c #81F37EBD6C49",
"{  c #81DD775776A3",
"}  c #82B47C477592",
"|  c #84E07CDD7C5A",
" . c #89867EC77F0E",
".. c #823B780885AB",
"X. c #837F7E7683BE",
"o. c #80A480458B70",
"O. c #909985335E6A",
"+. c #83B184936535",
"@. c #82E484166ECD",
"#. c #88298AAF68A5",
"$. c #8EB18EA665DE",
"%. c #86F481D6784F",
"&. c #851C82CD7EE2",
"*. c #851E8B087CD6",
"=. c #88FE857C74DF",
"-. c #8B198B78712E",
";. c #8C0E8E197B25",
":. c #8F1793EC6F8B",
">. c #8EB991897F02",
",. c #8D7999657158",
"<. c #942A8FE26644",
"1. c #917C8D4D6FD9",
"2. c #91778D467854",
"3. c #90D68F7C7DF9",
"4. c #921A91297012",
"5. c #954594977359",
"6. c #939796947BAE",
"7. c #97A89D20785F",
"8. c #991E92C07801",
"9. c #9F0097657D0D",
"0. c #9FB19D407326",
"q. c #9B2EA3B87622",
"w. c #9D4EA3597D37",
"e. c #A58E9D2877D8",
"r. c #A2CAA12A7452",
"t. c #A66FA6077C08",
"y. c #AB97AA1F807B",
"u. c #B4CFAEDD7B5E",
"i. c #867F83C88486",
"p. c #83D584B58C05",
"a. c #83D98CC483E9",
"s. c #86EC8C238D1B",
"d. c #8C39846183F0",
"f. c #8B6186548B68",
"g. c #8C598AED86C5",
"h. c #8E198B968C1A",
"j. c #87A1879492C9",
"k. c #883A89ED9195",
"l. c #8BAC8C999484",
"z. c #8E978F009A9E",
"x. c #870F91CC8742",
"c. c #8C3D94FE8C75",
"v. c #8F0099D98EF5",
"b. c #8F539332962B",
"n. c #900F91629900",
"m. c #8F689AF593C5",
"M. c #923E86C585F0",
"N. c #9333898C87E4",
"B. c #941E8BF58BCE",
"V. c #9AC98E778E5D",
"C. c #955E8F5292CD",
"Z. c #90C5905A9A67",
"A. c #939393128DF7",
"S. c #90F19D089017",
"D. c #9E4D9139908A",
"F. c #9D659E4E8511",
"G. c #9F9B9E698ED7",
"H. c #963D93AE9413",
"J. c #946594FB9CFC",
"K. c #948B9CE29483",
"L. c #971E9D079C23",
"P. c #9C8A945C9428",
"I. c #9CC2970F9B58",
"U. c #9BE69AE09654",
"Y. c #9E499B5E9B7A",
"T. c #96B69691A203",
"R. c #98129A63A3F2",
"E. c #9D209CAEA5EB",
"W. c #9F3D9E89ABCB",
"Q. c #99C8A40A83DC",
"!. c #96E3A1E096AF",
"~. c #97BCA15F9959",
"^. c #9BDAA5209C6D",
"/. c #9E88AA569EB8",
"(. c #9F37A57BA3CE",
"). c #9FBEA28AAB62",
"_. c #A072AB5AA2E5",
"`. c #A4CE9D5C8797",
"'. c #A45D9E968F03",
"]. c #A2E8952995C3",
"[. c #A0A49A18982D",
"{. c #A3589D979BB2",
"}. c #AA3E9E089DBE",
"|. c #A3F89E96A3B7",
" X c #A58A9EBAAA2E",
".X c #A7ACA4248D18",
"XX c #A837AE5C8D0E",
"oX c #A931A5B98D9C",
"OX c #AFABAB438B84",
"+X c #A637A1DA95FE",
"@X c #A4AFA3839EB9",
"#X c #ABE2A3FA9D73",
"$X c #AAACAEEB9A9C",
"%X c #AC91B0B08BB2",
"&X c #ABB0B12C9A8D",
"*X c #B566ADD98A43",
"=X c #B3C1B3CA8D0D",
"-X c #BD61B7368CD8",
";X c #B5B6B94D9205",
":X c #A706A40BA39C",
">X c #A3B8A38AAC97",
",X c #A416AC32A483",
"<X c #A5A1ABA3ACDD",
"1X c #AC6EA498A46B",
"2X c #AC23A6F3ABE5",
"3X c #AD9CAC70A767",
"4X c #B029AB61AD65",
"5X c #A57AA572B336",
"6X c #A84FAA40B1BA",
"7X c #A8CAA7D4B1AF",
"8X c #AC15AD15B49F",
"9X c #AF95AFD1BA2B",
"0X c #A5CAB25CA633",
"qX c #AC98B0CBA7AA",
"wX c #AB82B580ABD2",
"eX c #AE18BA35AE34",
"rX c #AD3CB16BB674",
"tX c #AFEDB113B986",
"yX c #B24AA526A541",
"uX c #B27FA983A85D",
"iX c #B329AC05ACEC",
"pX c #BB27AE54ADBB",
"aX c #B3D4ADE5B38C",
"sX c #B5D8B1F0AECD",
"dX c #BB4AB1B6AFE3",
"fX c #B7ACB227B61F",
"gX c #B314B40DBC89",
"hX c #B31ABD10B363",
"jX c #B588B93EBD1D",
"kX c #BB1DB599B38A",
"lX c #BBDAB649BBB1",
"zX c #BD1AB9A3B67C",
"xX c #BFACBB50BB2A",
"cX c #BB17BC2FC4B1",
"vX c #B7B9C196B7D9",
"bX c #BC22C5B5BC25",
"nX c #C1F8BBE28B17",
"mX c #C219B788B6D4",
"MX c #C350BD65BCAF",
"NX c #C32ABDB5C17B",
"BX c #C5FFC168BEEA",
"VX c #C4E5C372C647",
"CX c #C460C577CADF",
"ZX c #C371CC45C36A",
"AX c #C790CA38CD44",
"SX c #CD3EC63CC4E5",
"DX c #C8EFC57CCB7F",
"FX c #CDC9CC26CF60",
"GX c #CCC9CD8CD510",
"HX c #CC5ED489CD95",
"JX c #D14CC8B1C7A6",
"KX c #D64FCDAFCE9B",
"LX c #D375D0FFD688",
/* pixels */
"C C g q q > - q g q g g C U H { M.N.g.D.1X1X}.yXuXuX#XyXuXiXuX#X}.}.D.D.P.D.M.d.X.| | { | V V N ",
"j j j d j 9 6 a F a a a v F K &.g.&.g.U.@X_.,X3XuX,X^.,X3X3X,X:X,X,XA.A.A.c.a.*.i.%.T T P P k v ",
"c f c n v 0 v F n b f d v P ( a.s.s.x.m.L.(.<X,X0X,X,X<X,X<X,X,X>X~.K.c.x.s.a.s.' P P P K n n P ",
"E L l l l l L L L L L l E J.j.o.p.j.J.R.R.5X).W.W.5XW.R.T. XW.E.W.W.J.l.z.z.j.Q L L z z l l l K ",
"w w q 3 q q g g V H { N C H { U C U { { d.V.P.M.V.D.{.D.X.d.|  .B.N.M.d.{ U U N g g q q q q y i ",
"j 9 9 1 4 a j a j u j j j k G @.a j j k P T T A.@XU.H.P F *.7.y.;.g.A.H.A.g.F y J j 6 1 5 : 3 6 ",
"d a 0 6 a j c G } *.6.,.t.t.y.t 9 0 d c P b.K.^.v.( >.t.Q.Q.H.&XwXwX&XL._.^.v u 5.u 0 6 1 1 1 0 ",
"s s 8 8 s s l 6./ } ;.s s V J X 2 2 %.oX#X7X8X>XJ.p.A.OX..l X.W W f.L z Y A s =.j 7 2 8 2 8 8 8 ",
"6 4 q q g a q e g <.+ . O <.O.9.T 8.-.*X+X[.H.1X{.| ] -X=X5.B U 2.[.P..Xe.] j t.u.B 3 q q q q g ",
"3 : 5 3 6 9 a a 1.D y $ F.-X=X&.&.u.p a ;..Xa g.Y.G.u.j * 5 g.*.=XA.g.Y.0.j r.1.5.9 y 9 6 q 9 d ",
"* * 1 6 9 0 9 j 4.c 5 P =Xc.t.#./ $.+.%XG.P j ~.L.9 +.* 6 9 9 XX;X6.^ w.r 9 5.! q.-.0 d a 0 a j ",
"& , < & < 2 2 8 f E 4 s z.l J.e 7 . @ L z 8 s J.W.l l s s <   E J.I n.s W V L l s h s s s s 7 < ",
"$ $ $ - ; ; - V i.g 6 h P.I.d.V R | d.P.Z N Y P.h. .g N V.Z a V.iX1X|.P.[.P.I.V N g g a k g 4 6 ",
"$ ; O $ : , K g.a 3 4 6 H.{.( &.T R c.{.v k T H.A.g.j k K.| G Y.MXwXP.3XI.@X,XR K F j V R T q 3 ",
"* $ O O 9 j P b 1 d 9 d ~.c.A.^ P P b.c.v v a.wXwXc.n P K.a.P hXwX~.(.wX^.0X_.P P T ^ c.K.a.v 9 ",
"< o o = Z s E l 0 Z l l L I T.Q l l W s.l E Q >Xl.l.L L T.z.Q 7X XR. XcX>X<XT.L j.l.` Z.T.l.l s ",
"4 $ - q 3 h K e K g e V d.l.H.K h K Y B.d.R R H.U X.R K {.I.f.{.MXfX2XxXxXaXI.1X4XI.h.I.H.h.Y V ",
"e q j : , F | T 6 X 3 9 h.g.d.V K P.U.A.i.g.| g.T &. .| {.{.B.U.zXMX:XkXsXkXzXkX3XP.i.H.g.d.T U ",
"1 d 9 d : v ( a * # : * ( ( ( g.^.~.^.~.v.K.K.c.a.~.K.a.~.K.m.^.bXhX^.(.~.K.,XhXhX_.c.S.c.a.P M ",
"7 K z 8 8 n ` s & & & % s K o.s.E. XE.J.J.7XL j.l.9XT.p.l.Z.Z.gXGXgX6X<XJ.Y.W.tXgXW.Y.E.J.z.L z ",
"4 4 N Y q R h.h : $ 3 6 k T h k 4X4X:X1XiXC.| X.aXfX1Xf.B.H.V.2XGXMXiXaXiXaXlXlXfX4X{.:XI.f.U R ",
"9 3 q R k &.h.V a q g e U U d.R A.kX:XiXg. .i.i.sXzXiXB.A.H.H.:XSXSXiXkXsX{.#XzXxXkXiXsXH. .C g.",
"f c d 9 P b ) v 1 6 9 d d c *._.,X^.K.c.x.a.) ^ hXZXvXc.c.K.c.v.hXbXbXvXbXbXc.c.hXwXvX,X~.!.x.c.",
"l f f 8 8 l p.L , 7 0 e s s Q 8X8Xl.s.p.j.l.l.p.gXcXcXl.p.l.s.p.E.cX9X<XgXcX6Xl.b.6X8X9X8X>Xb.z.",
"k Z Z h 8 a Y l.h 4 q k l U I.fXxX2Xh.i.f.i.| i.2XxXzXi.i.f.h.h.l.4X|.{.|.1XlXf.f.s.:XfXlXZ.B.V.",
"N V V j a N N T d.K &.U i.[.kXMXMXMX1Xi.| U | i.sXzX:X| i.M.N.1XG.dX4X[.P.|.3X|  . .d.P.}.P.g.A.",
"c v v v v c a v v a./.c.hXbXhXwXZXbXeXx.( ~ ( ) wXvX~.( ) c.b.c.~.,XwX,X,XhXK.^ ( ( ) a.x.c.x.v.",
"s s n l n s z T I Q J.E.8XgXgX6XCXgX` _ W W W J.gX8XJ.` n.W K I E s.J.7X8X(.W W _ _ p.p.s.l.l.J.",
"k h h k K Y W i.i.p.B.1X2X2X2X(.xXJ.i.X.R Y Y f.fXaX2XX.X.W | L U Y | [.4XiXf.W X.f.f.f.f.h.B.H.",
"U V U H Y  .d.d.d.d.f.1X1X1X4X1X1X1X].N.R U C R U.1XiX4X{.B.d. .T i.l.[.2X1Xi. .d.g.N.h.B.B.H.I.",
"a.) ( ) ( b d / x.b ) s.P /.m.v.M / ' <X) c 9 G x.,XK._._.wXP K.( v b Y.wXhXeX^ P ( a.c.v.c.c.U.",
"p.p.p.p.Q s P L I W s.K L s.W K s 8 I s.I 9 2 2 s % , & e n E.J.s.Q 0 n m p.W & , s = p.Z.H.Z.R.",
"l.h.f.f.f.p.L d.i.p.d.I I R W I K f s V Z Z 0 6 6 h h f k j l h Z U I X.g.f.R.iXl.L Y ..C.Z.J.|.",
"D.V.V.V.V.V.N.N.N.M.N.N.B.M.M.d. .T H { U V N V e H C S C k N N V e g N T N.].yXpXdXpXU.{.}.#XuX",
"wXwXwXeXeXwXwXwX0X,XwX0X/.!.^./.~.K.S.A.g.x.x.( ) ^ a.a.*.P P ^ ^ ( a.a.x.v./.wX0X0XwXvXbXBXAXHX",
"rX8X<X<X<X<X6X6X6X<X>X).(.R.J.b.J.l.s.C.b.k.p.I K R E I z l n L W _ p.s.s.J.W. X<X9XjXVXZXCXAXFX",
"8X8X X|.>X2X2X X XI.I. XY.J.l.f.f.h.o.f.j.X.| p.p.Q Y Y Z Z K Z R W R l.I. X X X7XgXlXlXCXDXDXLX",
"pXpXyX}.}.}.}.].].D.V.].P.N.d. .M.M.X.M.X.{ X.| &.| { S Z S V S | |  .V.D.}.yX|.pXmXmXkXMXJXJXKX"
};
