/* XPM */
static char *icon32[] = {
/* columns rows colors chars-per-pixel */
"32 26 155 2",
"   c #45AB44BC46E3",
".  c #481B4C6D474D",
"X  c #4AF04CD64D45",
"o  c #4ED14EB053AB",
"O  c #4E4150C84D34",
"+  c #4E28507B511A",
"@  c #50814BA84C2A",
"#  c #51344F8152BA",
"$  c #511553684FBB",
"%  c #5401549C53EA",
"&  c #557C55625932",
"*  c #574A5D0F54B7",
"=  c #5ADD56DA5681",
"-  c #5924566159BF",
";  c #5AB559A9575E",
":  c #5C1C5B975C2B",
">  c #5DFA5DFC63EE",
",  c #5CA761FC5CD8",
"<  c #5F11628061BB",
"1  c #62615E075D8D",
"2  c #61F75F8C631E",
"3  c #689A60046158",
"4  c #637E606654E3",
"5  c #63DD61FC5F88",
"6  c #677168E05E22",
"7  c #6AF66E205F50",
"8  c #73F573D36057",
"9  c #646664FA62AD",
"0  c #649E648D6A89",
"q  c #65E069966535",
"w  c #6AD265DD64BE",
"e  c #6A1067786B91",
"r  c #69FF6C1A671E",
"t  c #6C836C516BD2",
"y  c #6E486DCE725E",
"u  c #6EFE72696DCC",
"i  c #6F3B71CD72EE",
"p  c #729A6F006425",
"a  c #742F6E136D92",
"s  c #73596F277243",
"d  c #75A074B66648",
"f  c #735E73ED6E5E",
"g  c #7404789E6D9F",
"h  c #798D771F6860",
"j  c #80667AB26E4F",
"k  c #74AD74C87516",
"l  c #75D975C47BA8",
"z  c #76877BC87645",
"x  c #76BA7A1C7AF6",
"c  c #7AD0758A7516",
"v  c #7AAA77957B36",
"b  c #7D1A7B097504",
"n  c #7B9B7C8A7C88",
"m  c #7E087D418312",
"M  c #7DAF83C77D1F",
"N  c #7DCF81A781C2",
"B  c #80AE8021619F",
"V  c #87267F8D6ECC",
"C  c #83587CFF7CEA",
"Z  c #82237EF783AA",
"A  c #874C866A6E5C",
"S  c #8512826D7EBD",
"D  c #85428AF67F99",
"F  c #8A22851875FC",
"G  c #8BB187777BB7",
"H  c #8CBD8B8B72EC",
"J  c #8D508AAF7D0C",
"K  c #90119206737D",
"L  c #970F8F6D765D",
"P  c #936894AA7A89",
"I  c #987B9B937C6B",
"U  c #9BDB9699733F",
"Y  c #9A8797D87994",
"T  c #9D4D9BC37933",
"R  c #A1219CF98009",
"E  c #A638A2167ED9",
"W  c #8418853E845D",
"Q  c #865F861E8B17",
"!  c #85A08C43854F",
"~  c #87328B2C8A9B",
"^  c #8B8584BA84A2",
"/  c #89E787448CCF",
"(  c #8C588A9286D5",
")  c #8CD88BB28C0A",
"_  c #8DCE8D5F9399",
"`  c #8D4B92DA82DF",
"'  c #8D8092508C7F",
"]  c #8F5593C492C9",
"[  c #903892A69898",
"{  c #916588E48833",
"}  c #92E18D698CE1",
"|  c #93E78FD59347",
" . c #920193408EE3",
".. c #94C494A29496",
"X. c #962495549B96",
"o. c #94CD9AB0953D",
"O. c #970499BE9C19",
"+. c #9B39949793D2",
"@. c #9A16974C9C5B",
"#. c #9B779D5A95C6",
"$. c #9B219E199D77",
"%. c #9CB09CDFA327",
"&. c #9DACA4279CFB",
"*. c #A071A8ACA085",
"=. c #9F15A1DEA507",
"-. c #A4339EEB8B4C",
";. c #A0F6967996DD",
":. c #A1299C96918F",
">. c #A4A99C2D9C4A",
",. c #A9C99EEB9F2F",
"<. c #A1609E88A4B0",
"1. c #A2E5A03FAA00",
"2. c #A4B8A29087A5",
"3. c #AB6BA4A28DBB",
"4. c #AAF4A9A787EC",
"5. c #A4F3A3D89391",
"6. c #A291A2959EEC",
"7. c #A1E9A929A052",
"8. c #AFFBAAE3A042",
"9. c #B256B1DF8F9F",
"0. c #B498B9019465",
"q. c #A2F3A794A52B",
"w. c #A53CA4B0ABD9",
"e. c #A55DAB9CA55E",
"r. c #A7EEACD6AA93",
"t. c #AD1CA510A545",
"y. c #AA24A78DAC87",
"u. c #A9E0ACD3A6B3",
"i. c #ACFEAA11AF2F",
"p. c #ACDEAC40B321",
"a. c #AC18B2E3AC4F",
"s. c #AE96B306B26B",
"d. c #B16AA6FAA6BB",
"f. c #B381AD28ACEB",
"g. c #B962AF64AEC7",
"h. c #B157AF1FB585",
"j. c #B386B5BEB44C",
"k. c #B454B488BCED",
"l. c #B28AB970B30D",
"z. c #B5E7BA43BA5B",
"x. c #BBDDB55FB507",
"c. c #B912BB15B5F0",
"v. c #BCC1BC34BBB6",
"b. c #BF37BD2FC2E6",
"n. c #BF9AC215BEA2",
"m. c #BD6FC148C135",
"M. c #C38CBC60BCAE",
"N. c #C16FC3AABE54",
"B. c #C825C2B2C461",
"V. c #C513C3ECCA7F",
"C. c #C702CAC2C8A2",
"Z. c #C889C8D0CF8D",
"A. c #CED2C703C6BA",
"S. c #CBCCCB02CFB3",
"D. c #D495CDA8CE03",
/* pixels */
"a w 9 = = w 1 w a f C ^ { ,.t.t.f.6.d.d.t.,.>.+.+.{ ^ C C b a t ",
"r r u q r f r w u M ! ( ' #.e.r.e.7.u.u.e.e.&.' ( D ! M z k f f ",
"x y t y k k x k W / W W ..O.w.%.w.=.O.%.$.%.%...] / N k k y y i ",
"2 : & : 2 e e e e s f t y k C Q X.@.C b F ( W ^ C s 2 r - & - : ",
"w 9 : r k H H A U U ; 5 r z +.6.} J T -.5.t.d.#.6.z h p 1 - = : ",
", , 9 q r q A % , h 7 g I 0.=.e.o.M 4.H i g ` D P : K d * , , 5 ",
"& & - > 0 j 6 % 2.9.S U 8 G ( m O.E 6 : N 5.) #.L A Y q > > > 0 ",
"@ % = 1 1 a a q -.G F 1 F S w ) ( w 1 1 w 3.b S 1 G V V 3 w 9 5 ",
"X X $ % * n 9 , ..) q z C M t ) ( u k z 9 e.=.#. . .t r q r 9 * ",
"% X X ; n 0 * : O.] n x o.v y o.$.k x ] m z.q.q.%.q.x k k ! k : ",
"#   : t c 2 k y v | v k / k v <.X.v C X.) i.<.h.w.q.v / Q X.Q e ",
"= - ; w c t : r ) } t c ( ^ C ( c S C 6.} x.f.x.g.t.f.$.} +.W a ",
", 9 : 9 M O   O ! n ! &.&.' o.! ! o.! &.] l.l.e.e.e.l.e.' ' ! k ",
"> y 0 e N + o o 0 v _ w.%.%.$.Z %.w.Q [ ..Z.p.s.w.w.k.w.%.%._ y ",
"; 2 c b ) : ; w c b C g.w.$.Z Z x.f.) ....B.M.f.t.y.v.x.t.+.b C ",
"r q 9 k W ; : 9 q n e.$. .( ( S c.n.)  . .u.n.c.N.6.#.j.c.e.] ] ",
"u y 0 , N r : q t W j.r.~ / ~ W s.n.Q ~ ~ ) s.=.r.z.~ ] r.j.O.] ",
"y y r e y Z m m _ i.b.M.=.m l W k.p.m Q X.@.k.q.@.y.m W / %..._ ",
"w t a t a f ( +.v.x.j.v.+.C C ( g.>.Z { n ( +.t.f.} C S ^ ^ } } ",
"r r u z M ! ! =.e.i.a.*.! M x ! l.a.! D M z M ..a.] M ! ! ! ' o.",
"m l m m k / m _ o.w.$.X.X./ y y ] w.p.w.m m k %.p.<.m Q _ _ _ X.",
"^ W ^ y a C m z W l e 9 b S > : w : ; c ..| f s v ..- 1 e  ...@.",
"' ) ) ( ! ^ ! S ! W C k u k a w 9 u u u t r f z ! $.l.6.|  ...6.",
"r.r.a.e.e.e.=.e.$.o.&.] ) ^ W C n M N x k z x S ( O.e.u.i.l.n.C.",
"p.w.1.y.p.w.1.1.<.@.| _ Z | } Z v m v s s v Z / _ <.1.h.b.V.V.Z.",
"g.d.,.t.>.>.+.;.;.Z Z { Z Z Z Z Z C s s s C C { >.t.t.x.x.M.A.D."
};
