/* XPM */
static char *icon16[] = {
/* columns rows colors chars-per-pixel */
"16 13 72 1",
"  c #4C9F4F134E2E",
". c #530E521B52EC",
"X c #5D315DA95C71",
"o c #61505F5F5E1A",
"O c #641863D563E6",
"+ c #67476684696E",
"@ c #675569CD69B4",
"# c #692667CD64EE",
"$ c #6BA66AF16586",
"% c #6D4B6C736C7C",
"& c #6EF16F277129",
"* c #6FF272636ED4",
"= c #6FC772D970C3",
"- c #70F56E10723B",
"; c #728A72526D7B",
": c #7BCB7BD0699F",
"> c #74C774947396",
", c #77307A17767F",
"< c #77A67A5E7A62",
"1 c #797C74A07819",
"2 c #7A5D77437888",
"3 c #7AD87AA476D2",
"4 c #7C647B987DC4",
"5 c #7FCD7E6881F7",
"6 c #7EEF81277DA8",
"7 c #82997F446FBE",
"8 c #82717FC1722C",
"9 c #80A47D147E32",
"0 c #82E97F398319",
"q c #82BD819B67BB",
"w c #8364809B7351",
"e c #838E83977E5B",
"r c #8CA38D067B3A",
"t c #84D883F98424",
"y c #85F285FA8955",
"u c #87E38BB08768",
"i c #8A18875F8746",
"p c #8B35874F8B5A",
"a c #8CBB8BD08476",
"s c #8CEF8BCA8D0A",
"d c #8DDA8E7B9165",
"f c #8EFA92E88E6F",
"g c #8FAC92D391FD",
"h c #91D48FE08E06",
"j c #92E28FED911F",
"k c #938D943C8F15",
"l c #9E399CE98186",
"z c #9432947D955F",
"x c #96B096A99A19",
"c c #9653996A957D",
"v c #96E19AD29AD6",
"b c #98B596D692CB",
"n c #9AB198DE95BB",
"m c #9CE99C179C40",
"M c #9F81A320A0B1",
"N c #A1559E0288C1",
"B c #A2099E4FA01B",
"V c #A139A2639E3D",
"C c #A47DA30EA3F6",
"Z c #A7A1AAF3A745",
"A c #A70FAA27AB13",
"S c #A926A644A501",
"D c #AB18A72BA8D1",
"F c #AB5FAA26A5E6",
"G c #AE00ACEFADC9",
"H c #AFC8B197AF02",
"J c #B1E8AFE4ADDC",
"K c #B256B344AED7",
"L c #B44FB560B7EF",
"P c #BA41B848B671",
"I c #C07DBB7CBEE8",
"U c #CD60C949CBEF",
/* pixels */
"%O##>ibSFFFnat3;",
"+O%%<<tzmskst-OO",
"OO;:q#rValab9:XX",
".o$ONww9aoaa77OO",
" .%Xz>t6t6gMn>>O",
".O%%p>titsBGDzh,",
"OO@ <cvgcgAHAGz5",
"O;;o>mntPsCPGJZi",
"%+>*sLstLyzAAyCg",
"@;<zKHi9Ht6cBeuf",
"t44td5i+6yp4x-yz",
"vvccsu91>,*,zAVJ",
"JSCBzpp09110mGIU"
};
